<?xml version="1.0" encoding="UTF-8"?>
<!DOCTYPE svg PUBLIC "-//W3C//DTD SVG 1.1//EN" "http://www.w3.org/Graphics/SVG/1.1/DTD/svg11.dtd">
<!-- Creator: CorelDRAW 2019 (64 Bit) -->
<svg xmlns="http://www.w3.org/2000/svg" xml:space="preserve" width="16.3281mm" height="16.3343mm" version="1.1" style="shape-rendering:geometricPrecision; text-rendering:geometricPrecision; image-rendering:optimizeQuality; fill-rule:evenodd; clip-rule:evenodd"
viewBox="0 0 230.01 230.1"
 xmlns:xlink="http://www.w3.org/1999/xlink">
 <defs>
  <style type="text/css">
   <![CDATA[
    .fil0 {fill:#034D66}
   ]]>
  </style>
 </defs>
 <g id="Camada_x0020_1">
  <metadata id="CorelCorpID_0Corel-Layer"/>
  <path class="fil0" d="M217.36 0.04l-204.66 0c-7.01,0 -12.7,5.69 -12.7,12.7l0 204.66c0,7.01 5.69,12.7 12.7,12.7l110.17 0 0 -89.1 -29.99 0 0 -34.72 29.99 0 0 -25.62c0,-29.69 18.13,-45.89 44.66,-45.89 12.7,0 23.6,0.96 26.8,1.36l0 31.04 -18.39 0c-14.41,0 -17.21,6.83 -17.21,16.9l0 22.16 34.37 0 -4.51 34.72 -29.91 0 0 89.11 58.63 0c7.01,0 12.7,-5.69 12.7,-12.7l0 -204.66c0,-7.01 -5.69,-12.7 -12.7,-12.7l0.04 0.04z"/>
 </g>
</svg>
