<?xml version="1.0" encoding="UTF-8"?>
<!DOCTYPE svg PUBLIC "-//W3C//DTD SVG 1.1//EN" "http://www.w3.org/Graphics/SVG/1.1/DTD/svg11.dtd">
<!-- Creator: CorelDRAW 2019 (64 Bit) -->
<svg xmlns="http://www.w3.org/2000/svg" xml:space="preserve" width="16.3313mm" height="16.3313mm" version="1.1" style="shape-rendering:geometricPrecision; text-rendering:geometricPrecision; image-rendering:optimizeQuality; fill-rule:evenodd; clip-rule:evenodd"
viewBox="0 0 223.97 223.97"
 xmlns:xlink="http://www.w3.org/1999/xlink"
 xmlns:xodm="http://www.corel.com/coreldraw/odm/2003">
 <defs>
  <style type="text/css">
   <![CDATA[
    .fil0 {fill:#034D66}
   ]]>
  </style>
 </defs>
 <g id="Camada_x0020_1">
  <metadata id="CorelCorpID_0Corel-Layer"/>
  <g id="_1459258164368">
   <path class="fil0" d="M162.15 0l-100.34 0c-34.08,0 -61.81,27.73 -61.81,61.81l0 100.34c0,34.08 27.73,61.82 61.81,61.82l100.34 0c34.08,0 61.82,-27.73 61.82,-61.82l0 -100.34c0,-34.08 -27.73,-61.81 -61.82,-61.81zm41.94 162.15c0,23.13 -18.81,41.94 -41.94,41.94l-100.34 0c-23.13,0 -41.94,-18.81 -41.94,-41.94l0 -100.34c0,-23.13 18.81,-41.94 41.94,-41.94l100.34 0c23.13,0 41.94,18.81 41.94,41.94l0 100.34 0 0zm-92.11 -107.87c-31.8,0 -57.7,25.9 -57.7,57.7 0,31.8 25.9,57.7 57.7,57.7 31.8,0 57.7,-25.9 57.7,-57.7 0,-31.8 -25.9,-57.7 -57.7,-57.7zm0 95.53c-20.85,0 -37.83,-16.98 -37.83,-37.83 0,-20.85 16.98,-37.83 37.83,-37.83 20.85,0 37.83,16.98 37.83,37.83 0,20.85 -16.98,37.83 -37.83,37.83zm60.15 -112.39c-3.83,0 -7.57,1.55 -10.3,4.28 -2.73,2.69 -4.27,6.47 -4.27,10.3 0,3.83 1.55,7.57 4.27,10.3 2.69,2.69 6.48,4.27 10.3,4.27 3.83,0 7.57,-1.55 10.3,-4.27 2.73,-2.73 4.28,-6.48 4.28,-10.3 0,-3.83 -1.55,-7.61 -4.28,-10.3 -2.69,-2.73 -6.47,-4.28 -10.3,-4.28z"/>
  </g>
 </g>
</svg>
