<?xml version="1.0" encoding="UTF-8"?>
<!DOCTYPE svg PUBLIC "-//W3C//DTD SVG 1.1//EN" "http://www.w3.org/Graphics/SVG/1.1/DTD/svg11.dtd">
<!-- Creator: CorelDRAW 2019 (64 Bit) -->
<svg xmlns="http://www.w3.org/2000/svg" xml:space="preserve" width="144.924mm" height="16.7789mm" version="1.1" style="shape-rendering:geometricPrecision; text-rendering:geometricPrecision; image-rendering:optimizeQuality; fill-rule:evenodd; clip-rule:evenodd"
viewBox="0 0 18384.55 2128.51"
 xmlns:xlink="http://www.w3.org/1999/xlink"
 xmlns:xodm="http://www.corel.com/coreldraw/odm/2003">
 <defs>
  <style type="text/css">
   <![CDATA[
    .fil0 {fill:#373435;fill-rule:nonzero}
   ]]>
  </style>
 </defs>
 <g id="Camada_x0020_1">
  <metadata id="CorelCorpID_0Corel-Layer"/>
  <g id="_2196383460752">
   <path class="fil0" d="M4674.49 1858.6l0 -156.25c0,-34.34 0,-62.45 0,-84.35 0,-21.91 0,-39.52 0,-52.84 0,-13.31 -0.15,-23.96 -0.44,-31.96 -0.29,-7.99 -0.74,-15.54 -1.33,-22.64 -1.18,-15.39 -4.15,-26.93 -8.88,-34.62 -4.73,-7.7 -14.5,-13.03 -29.3,-15.98 -3.55,-1.18 -8.42,-1.93 -14.64,-2.22 -6.22,-0.29 -11.4,-0.44 -15.54,-0.44 -4.73,0 -7.1,-1.78 -7.1,-5.33 0,-4.73 4.73,-7.1 14.21,-7.1 10.06,0 20.72,0.15 31.96,0.44 11.25,0.29 21.76,0.6 31.52,0.89 9.77,0.29 18.05,0.6 24.86,0.89 6.8,0.29 10.8,0.44 11.98,0.44 2.37,0 7.55,-0.15 15.54,-0.44 7.99,-0.29 17.47,-0.6 28.42,-0.89 10.95,-0.29 22.94,-0.6 35.95,-0.89 13.03,-0.29 26.35,-0.44 39.96,-0.44 21.9,0 47.79,0.15 77.69,0.44 29.89,0.29 61.11,3.4 93.66,9.32 32.56,5.91 64.82,15.83 96.78,29.75 31.97,13.9 61.26,34.47 87.9,61.7 11.24,11.84 22.05,25.16 32.4,39.95 10.36,14.8 19.54,31.52 27.53,50.16 7.99,18.65 14.36,39.22 19.09,61.72 4.73,22.49 7.1,47.05 7.1,73.69 0,27.82 -2.66,54.15 -7.99,79.02 -5.33,24.85 -12.43,47.79 -21.31,68.81 -8.88,21.01 -19.09,40.1 -30.62,57.26 -11.54,17.16 -23.53,32.26 -35.96,45.28 -9.46,10.06 -21.76,21.02 -36.84,32.86 -15.1,11.84 -33.59,22.94 -55.5,33.29 -21.9,10.36 -47.34,18.94 -76.35,25.75 -29,6.81 -62.44,10.21 -100.32,10.21 -18.94,0 -39.52,-0.6 -61.7,-1.78 -22.2,-1.18 -42.78,-2.37 -61.72,-3.55 -19.52,-1.18 -36.1,-2.37 -49.71,-3.55 -13.61,-1.18 -21.6,-1.78 -23.98,-1.78 -1.18,0 -5.02,0 -11.53,0 -6.52,0 -14.51,0.29 -23.98,0.89 -8.88,0 -18.05,0.29 -27.53,0.89 -9.46,0.6 -17.46,0.89 -23.96,0.89 -9.48,0 -14.21,-2.37 -14.21,-7.1 0,-3.55 2.36,-5.33 7.1,-5.33 4.14,0 8.58,-0.29 13.31,-0.89 4.74,-0.6 9.18,-1.48 13.32,-2.66 8.88,-1.78 14.94,-7.1 18.2,-15.98 3.26,-8.87 5.77,-19.83 7.55,-32.84 2.37,-18.94 3.7,-45.14 4,-78.57 0.29,-33.44 0.44,-71.47 0.44,-114.09zm74.58 -170.46l0 110.09c0,23.68 0,46.18 0,67.47 0,21.31 0.15,40.54 0.44,57.72 0.29,17.16 0.6,31.66 0.89,43.5 0.29,11.84 0.44,19.83 0.44,23.98 0,5.33 0.29,11.39 0.89,18.19 0.58,6.81 1.18,13.47 1.78,19.98 0.58,6.51 1.47,12.43 2.66,17.76 1.18,5.33 2.66,9.17 4.44,11.54 2.96,4.14 7.55,8.28 13.76,12.43 6.2,4.14 15.08,7.98 26.63,11.53 11.54,3.55 26.34,6.37 44.4,8.44 18.05,2.08 40.1,3.11 66.14,3.11 41.43,0 80.35,-7.1 116.75,-21.3 36.41,-14.21 67.92,-34.63 94.56,-61.27 11.24,-11.24 21.31,-24.85 30.18,-40.84 8.88,-15.98 16.43,-33.3 22.64,-51.93 6.22,-18.65 10.81,-38.03 13.76,-58.16 2.96,-20.12 4.44,-40.54 4.44,-61.26 0,-28.4 -2.66,-54.15 -7.99,-77.24 -5.33,-23.08 -12.28,-43.94 -20.87,-62.59 -8.58,-18.65 -17.9,-34.92 -27.96,-48.83 -10.07,-13.92 -19.54,-25.6 -28.42,-35.08 -20.72,-21.9 -42.61,-39.5 -65.7,-52.82 -23.09,-13.32 -46.76,-23.53 -71.03,-30.64 -24.27,-7.1 -49.27,-11.68 -75.02,-13.75 -25.75,-2.08 -51.93,-3.11 -78.57,-3.11 -4.73,0 -9.92,0.14 -15.54,0.44 -5.62,0.29 -11.39,0.74 -17.32,1.33 -5.91,0.58 -11.09,1.33 -15.53,2.22 -4.44,0.89 -7.55,1.62 -9.32,2.22 -7.1,2.96 -10.66,8.87 -10.66,17.75 0,7.7 -0.15,18.65 -0.44,32.86 -0.29,14.21 -0.44,30.04 -0.44,47.5 0,17.47 0,35.66 0,54.6 0,18.95 0,37 0,54.17zm739.57 170.46l0 -156.25c0,-34.34 0,-62.45 0,-84.35 0,-21.91 0,-39.52 0,-52.84 0,-13.31 -0.15,-23.96 -0.44,-31.96 -0.29,-7.99 -0.74,-15.54 -1.33,-22.64 -1.18,-15.39 -4.15,-26.93 -8.88,-34.62 -4.73,-7.7 -14.5,-13.03 -29.3,-15.98 -3.55,-1.18 -8.42,-1.93 -14.64,-2.22 -6.22,-0.29 -11.4,-0.44 -15.54,-0.44 -4.73,0 -7.1,-1.78 -7.1,-5.33 0,-4.73 4.73,-7.1 14.21,-7.1 10.06,0 20.72,0 31.96,0 11.25,0 21.91,0.29 31.97,0.89l36.4 1.78c1.78,0 12.29,0 31.52,0 19.23,0 40.84,0 64.81,0 23.98,0 46.47,-0.15 67.47,-0.44 21.02,-0.29 34.19,-0.44 39.52,-0.44 17.16,-1.18 29.89,-2.66 38.17,-4.44 2.37,-0.6 4.44,-1.48 6.22,-2.66 1.78,-1.18 3.84,-1.78 6.22,-1.78 2.37,0 3.55,2.66 3.55,7.99 0,2.96 -0.89,7.55 -2.66,13.76 -1.78,6.22 -3.26,15.54 -4.44,27.96 0,2.37 -0.15,6.22 -0.44,11.54 -0.29,5.33 -0.74,11.1 -1.33,17.32 -0.6,6.22 -1.04,12.14 -1.33,17.76 -0.29,5.62 -0.74,9.62 -1.33,11.99 -0.6,2.36 -1.33,4.58 -2.22,6.66 -0.89,2.07 -2.22,3.11 -4,3.11 -4.73,0 -7.1,-3.86 -7.1,-11.54 0,-2.97 -0.29,-7.7 -0.89,-14.21 -0.58,-6.51 -2.07,-12.43 -4.44,-17.76 -2.96,-7.1 -8.28,-13.17 -15.97,-18.2 -7.7,-5.02 -23.39,-9.02 -47.06,-11.98 -3.55,-0.6 -11.54,-1.04 -23.98,-1.33 -12.42,-0.3 -25.45,-0.6 -39.06,-0.89 -13.61,-0.3 -26.2,-0.44 -37.73,-0.44 -11.54,0 -18.51,0 -20.87,0 -3.55,0 -5.33,2.96 -5.33,8.87l0 245.05c0,5.92 1.78,8.88 5.33,8.88 2.96,0 10.95,0 23.96,0 13.03,0 27.38,0 43.07,0 15.68,0 30.62,-0.15 44.83,-0.44 14.21,-0.29 23.98,-0.74 29.3,-1.33 10.66,-1.18 19.23,-2.37 25.75,-3.55 6.51,-1.18 11.84,-4.15 15.97,-8.88 6.52,-7.69 10.95,-11.54 13.32,-11.54 2.96,0 4.44,2.37 4.44,7.1 0,2.97 -0.89,8.28 -2.66,15.98 -1.78,7.7 -3.26,18.94 -4.44,33.74 -0.58,4.73 -1.03,9.91 -1.33,15.53 -0.29,5.63 -0.58,11.25 -0.89,16.87 -0.29,5.62 -0.58,10.66 -0.89,15.1 -0.29,4.44 -0.44,7.55 -0.44,9.32 0,3.55 -0.29,7.24 -0.89,11.1 -0.58,3.84 -2.36,5.77 -5.33,5.77 -4.14,0 -6.22,-2.66 -6.22,-7.99 0,-4.74 -0.14,-9.32 -0.44,-13.76 -0.29,-4.44 -1.33,-9.62 -3.11,-15.54 -1.78,-6.51 -5.62,-12.88 -11.53,-19.09 -5.92,-6.22 -17.47,-10.21 -34.63,-11.98 -5.92,-0.6 -15.24,-1.19 -27.97,-1.78 -12.72,-0.6 -25.74,-1.04 -39.06,-1.33 -13.32,-0.3 -25.75,-0.6 -37.3,-0.89 -11.53,-0.3 -19.08,-0.44 -22.63,-0.44 -4.15,0 -6.22,2.07 -6.22,6.2l0 77.84c0,7.7 0,18.94 0,33.74 0,14.64 0,30.04 0,46.01 0,15.83 0,30.64 0,44.25 0,13.61 0,22.78 0,27.38 0.6,15.39 2.22,27.82 4.88,37.3 2.66,9.31 7.69,16.72 15.1,22.05 7.4,5.33 17.61,8.87 30.62,10.64 13.03,1.78 30.48,2.66 52.38,2.66 11.85,0 26.04,-0.44 42.62,-1.33 16.57,-0.89 30.78,-3.69 42.61,-8.42 11.84,-4.74 20.72,-11.99 26.64,-21.76 5.92,-9.77 10.35,-23.82 13.32,-42.18 1.78,-8.87 4.44,-13.31 7.99,-13.31 2.96,0 4.58,1.47 4.88,4.44 0.29,2.96 0.44,5.91 0.44,8.87 0,1.78 -0.44,6.37 -1.33,13.76 -0.89,7.4 -1.93,15.69 -3.11,24.86 -1.19,9.17 -2.37,18.2 -3.55,27.08 -1.19,9.02 -2.37,15.83 -3.55,20.72 -1.78,6.06 -3.55,10.64 -5.33,13.61 -1.78,3.11 -4.44,5.33 -7.99,6.8 -3.55,1.64 -7.99,2.52 -13.32,2.82 -5.33,0.29 -12.43,0.44 -21.31,0.44 -33.73,0 -62.88,-0.29 -87.44,-0.89 -24.57,-0.6 -45.43,-1.18 -62.6,-1.78 -17.16,-1.18 -31.36,-1.93 -42.61,-2.22 -11.25,-0.29 -20.12,-0.44 -26.64,-0.44 -1.18,0 -5.02,0 -11.53,0 -6.52,0 -14.51,0.29 -23.98,0.89 -8.88,0 -18.05,0.29 -27.53,0.89 -9.46,0.6 -17.46,0.89 -23.96,0.89 -9.48,0 -14.21,-2.37 -14.21,-7.1 0,-3.55 2.36,-5.33 7.1,-5.33 4.14,0 8.58,-0.29 13.31,-0.89 4.74,-0.6 9.18,-1.48 13.32,-2.66 8.88,-1.78 14.94,-7.1 18.2,-15.98 3.26,-8.87 5.77,-19.83 7.55,-32.84 2.37,-18.94 3.7,-45.14 4,-78.57 0.29,-33.44 0.44,-71.47 0.44,-114.09zm541.59 0l0 -156.25c0,-34.34 0,-62.45 0,-84.35 0,-21.91 0,-39.52 0,-52.84 0,-13.31 -0.15,-23.96 -0.44,-31.96 -0.29,-7.99 -0.74,-15.54 -1.33,-22.64 -1.18,-15.39 -4.15,-26.93 -8.88,-34.62 -4.73,-7.7 -14.5,-13.03 -29.3,-15.98 -3.55,-1.18 -8.42,-1.93 -14.64,-2.22 -6.22,-0.29 -11.4,-0.44 -15.54,-0.44 -4.73,0 -7.1,-1.78 -7.1,-5.33 0,-4.73 4.73,-7.1 14.21,-7.1 10.06,0 20.72,0.15 31.96,0.44 11.25,0.29 21.76,0.6 31.52,0.89 9.77,0.29 18.05,0.6 24.86,0.89 6.8,0.29 10.8,0.44 11.98,0.44 2.37,0 7.85,-0.15 16.43,-0.44 8.59,-0.29 18.36,-0.6 29.3,-0.89 10.95,-0.29 21.74,-0.6 32.4,-0.89 10.66,-0.29 19.54,-0.44 26.64,-0.44 28.42,0 56.68,2.22 84.79,6.66 28.11,4.44 54,15.24 77.69,32.41 5.33,4.14 11.54,9.91 18.64,17.3 7.1,7.41 13.76,16.14 19.98,26.2 6.22,10.06 11.54,21.6 15.98,34.62 4.44,13.03 6.66,27.24 6.66,42.62 0,33.15 -7.99,66.43 -23.98,99.89 -15.98,33.44 -43.79,68.5 -83.46,105.2 36.7,46.76 70.14,89.38 100.33,127.85 30.19,38.48 58.3,71.62 84.35,99.44 24.27,25.45 45.58,42.03 63.92,49.71 18.34,7.7 33.15,12.43 44.39,14.21 8.3,1.18 15.4,1.93 21.31,2.22 5.92,0.29 10.36,0.44 13.32,0.44 5.33,0 7.99,1.78 7.99,5.33 0,2.96 -1.48,4.88 -4.44,5.77 -2.96,0.89 -8.59,1.33 -16.87,1.33l-63.03 0c-24.86,0 -44.1,-1.18 -57.71,-3.55 -13.61,-2.37 -26.04,-6.81 -37.3,-13.32 -18.94,-10.06 -37.28,-25.89 -55.04,-47.5 -17.76,-21.6 -39.36,-49.28 -64.81,-83.01 -9.48,-12.43 -18.94,-25.16 -28.42,-38.18 -9.46,-13.02 -18.5,-25.45 -27.07,-37.28 -8.59,-11.84 -16.58,-22.64 -23.98,-32.41 -7.4,-9.76 -13.17,-17.61 -17.32,-23.52 -3.55,-3.55 -7.4,-5.33 -11.54,-5.33l-109.2 -1.78c-4.15,0 -6.22,2.36 -6.22,7.1l0 21.3c0,42.62 0.15,80.66 0.44,114.09 0.29,33.44 1.62,59.64 4,78.57 1.18,13.02 3.84,23.98 7.99,32.84 4.14,8.88 13.02,14.21 26.63,15.98 6.52,1.18 13.76,2.07 21.76,2.66 7.99,0.6 14.06,0.89 18.2,0.89 4.73,0 7.1,1.78 7.1,5.33 0,4.73 -4.74,7.1 -14.21,7.1 -12.43,0 -24.86,-0.15 -37.3,-0.44 -12.42,-0.29 -23.82,-0.6 -34.18,-0.89 -10.36,-0.29 -18.94,-0.6 -25.75,-0.89 -6.8,-0.29 -10.8,-0.44 -11.99,-0.44 0,0 -3.11,0.15 -9.31,0.44 -6.22,0.29 -13.76,0.6 -22.64,0.89 -8.88,0.29 -18.05,0.6 -27.53,0.89 -9.46,0.29 -17.46,0.44 -23.96,0.44 -9.48,0 -14.21,-2.37 -14.21,-7.1 0,-3.55 2.36,-5.33 7.1,-5.33 4.14,0 8.58,-0.29 13.31,-0.89 4.74,-0.6 9.18,-1.48 13.32,-2.66 8.88,-1.78 14.94,-7.1 18.2,-15.98 3.26,-8.87 5.77,-19.83 7.55,-32.84 2.37,-18.94 3.7,-45.14 4,-78.57 0.29,-33.44 0.44,-71.47 0.44,-114.09zm71.03 -369.34l0 290.34c0,4.73 2.07,8.28 6.22,10.64 6.51,4.15 18.79,7.55 36.84,10.21 18.05,2.66 36.85,4 56.39,4 10.64,0 21.9,-1.03 33.73,-3.11 11.84,-2.07 22.78,-6.66 32.86,-13.76 15.39,-10.64 28.26,-27.67 38.62,-51.05 10.36,-23.38 15.54,-51.93 15.54,-85.68 0,-55.64 -13.61,-99.14 -40.85,-130.51 -27.22,-31.37 -64.81,-47.05 -112.75,-47.05 -13.61,0 -25.75,0.58 -36.41,1.78 -10.64,1.18 -18.34,2.36 -23.08,3.55 -4.73,1.78 -7.1,5.33 -7.1,10.64zm1199.48 -32.84l59.48 546.01c0.6,8.3 1.78,17.18 3.55,26.64 1.78,9.48 4.29,18.65 7.55,27.53 3.25,8.88 7.84,17.01 13.76,24.41 5.91,7.41 13.61,12.58 23.08,15.54 13.03,4.15 24.71,6.51 35.08,7.1 10.35,0.6 17.9,0.89 22.64,0.89 4.73,0 7.09,1.48 7.09,4.44 0,2.96 -1.78,5.04 -5.33,6.22 -3.54,1.18 -7.98,1.78 -13.31,1.78 -4.74,0 -13.61,0 -26.64,0 -13.02,0 -27.22,-0.15 -42.61,-0.44 -15.4,-0.29 -30.34,-0.74 -44.84,-1.33 -14.5,-0.6 -25.89,-1.18 -34.18,-1.78 -10.07,-1.18 -16.72,-2.37 -19.98,-3.55 -3.26,-1.18 -4.88,-2.96 -4.88,-5.33 0,-3.55 2.07,-5.62 6.22,-6.22 2.37,-0.58 3.84,-4 4.44,-10.21 0.6,-6.22 0.29,-13.46 -0.89,-21.74l-42.62 -460.79 -2.66 0 -217.52 461.68c-9.46,19.52 -15.68,32.26 -18.64,38.17 -2.97,5.92 -6.52,8.88 -10.66,8.88 -2.96,0 -6.22,-2.82 -9.77,-8.44 -3.55,-5.62 -9.48,-16.43 -17.76,-32.4 -5.91,-10.66 -14.35,-27.08 -25.3,-49.28 -10.96,-22.19 -22.06,-44.54 -33.3,-67.03 -11.25,-22.49 -21.31,-42.47 -30.19,-59.93 -8.87,-17.47 -13.9,-27.38 -15.08,-29.75 -1.19,-2.36 -4.74,-9.77 -10.66,-22.19 -5.92,-12.43 -13.03,-27.38 -21.31,-44.84 -8.28,-17.46 -17.01,-36.26 -26.2,-56.37 -9.17,-20.12 -17.9,-39.06 -26.18,-56.82 -8.28,-17.76 -15.39,-33.3 -21.31,-46.62 -5.92,-13.31 -9.77,-22.05 -11.54,-26.18l-3.55 0 -35.51 411.95c-0.6,7.1 -0.89,14.5 -0.89,22.2 0,7.69 0,15.39 0,23.09 0,6.51 2.22,12.42 6.66,17.75 4.44,5.33 9.91,8.59 16.42,9.77 7.7,1.78 14.51,2.96 20.42,3.55 5.92,0.6 10.36,0.89 13.32,0.89 4.73,0 7.1,1.48 7.1,4.44 0,5.33 -5.33,7.99 -15.98,7.99 -8.28,0 -16.87,-0.15 -25.75,-0.44 -8.87,-0.29 -17.3,-0.6 -25.3,-0.89 -7.99,-0.29 -14.8,-0.6 -20.42,-0.89 -5.62,-0.29 -9.32,-0.44 -11.1,-0.44 -1.78,0 -5.62,0.15 -11.54,0.44 -5.91,0.29 -12.57,0.6 -19.97,0.89 -7.41,0.29 -14.96,0.6 -22.64,0.89 -7.7,0.29 -14.5,0.44 -20.42,0.44 -10.06,0 -15.1,-2.66 -15.1,-7.99 0,-2.96 2.97,-4.44 8.88,-4.44 3.55,0 7.26,-0.15 11.1,-0.44 3.84,-0.29 9.03,-1.04 15.54,-2.22 14.79,-2.96 23.98,-11.68 27.53,-26.18 3.55,-14.51 6.2,-30.34 7.98,-47.51l63.94 -578.87c1.18,-10.66 4.44,-15.98 9.76,-15.98 4.74,0 9.18,4.44 13.32,13.32l271.69 558.45 261.02 -557.56c4.15,-9.48 8.59,-14.21 13.32,-14.21 5.33,0 8.88,7.99 10.66,23.98zm257.47 562l201.54 -551.34c5.33,-14.8 9.17,-24.27 11.54,-28.42 2.37,-4.14 5.04,-6.22 7.99,-6.22 2.96,0 5.62,1.93 7.99,5.77 2.36,3.84 6.22,12.58 11.54,26.2 2.36,5.91 7.84,19.98 16.42,42.17 8.59,22.2 18.94,49.42 31.08,81.68 12.13,32.26 25.6,67.63 40.39,106.1 14.8,38.46 29.46,76.49 43.96,114.08 14.5,37.59 28.4,73.25 41.72,106.99 13.32,33.73 24.42,61.86 33.3,84.35 7.69,19.52 15.24,35.51 22.64,47.94 7.4,12.43 14.2,22.2 20.41,29.29 6.22,7.1 12.14,12.14 17.76,15.1 5.62,2.97 10.81,5.04 15.54,6.22 6.51,2.37 12.88,3.84 19.09,4.44 6.2,0.6 11.68,0.89 16.42,0.89 5.92,0 8.88,1.78 8.88,5.33 0,2.96 -1.78,4.88 -5.33,5.77 -3.55,0.89 -7.69,1.33 -12.43,1.33 -3.55,0 -9.91,0 -19.08,0 -9.18,0 -20.13,0 -32.86,0 -12.72,0 -26.64,-0.15 -41.72,-0.44 -15.1,-0.29 -30.34,-0.74 -45.73,-1.33 -8.28,-0.6 -14.79,-1.04 -19.52,-1.33 -4.74,-0.29 -7.1,-1.93 -7.1,-4.88 0,-2.96 2.07,-5.04 6.22,-6.22 2.96,-1.18 5.33,-3.69 7.09,-7.55 1.78,-3.84 1.19,-9.32 -1.76,-16.43l-82.57 -218.41c-1.78,-3.55 -4.44,-5.32 -7.99,-5.32l-190.89 0c-4.14,0 -7.1,2.36 -8.88,7.09l-53.27 157.15c-8.28,23.09 -12.43,42.92 -12.43,59.48 0,8.88 3.7,15.4 11.1,19.54 7.4,4.15 14.94,6.22 22.64,6.22l8.88 0c5.91,0 8.88,1.78 8.88,5.33 0,4.73 -4.44,7.1 -13.32,7.1 -5.33,0 -11.54,-0.15 -18.65,-0.44 -7.1,-0.29 -13.9,-0.6 -20.42,-0.89 -6.51,-0.29 -12.57,-0.6 -18.19,-0.89 -5.63,-0.29 -9.63,-0.44 -11.99,-0.44 -2.37,0 -6.95,0.15 -13.76,0.44 -6.81,0.29 -14.94,0.6 -24.42,0.89 -9.46,0.29 -19.52,0.6 -30.18,0.89 -10.66,0.29 -21.31,0.44 -31.97,0.44 -11.24,0 -16.87,-2.37 -16.87,-7.1 0,-3.55 2.66,-5.33 7.99,-5.33 2.97,0 7.1,-0.15 12.43,-0.44 5.33,-0.29 9.77,-0.74 13.32,-1.33 20.72,-2.96 36.26,-11.99 46.61,-27.07 10.36,-15.1 19.69,-33.9 27.97,-56.39zm124.29 -196.21l169.58 0c3.55,0 4.73,-2.07 3.55,-6.22l-84.35 -239.72c-4.73,-13.02 -9.17,-13.02 -13.32,0l-78.13 239.72c-1.78,4.15 -0.89,6.22 2.66,6.22zm760 -339.15l0 375.55c0,42.62 0.15,80.66 0.44,114.09 0.3,33.44 1.64,59.64 4,78.57 1.19,13.02 3.86,23.98 7.99,32.84 4.15,8.88 13.03,14.21 26.64,15.98 6.51,1.18 13.76,2.07 21.74,2.66 7.99,0.6 14.07,0.89 18.2,0.89 4.74,0 7.1,1.78 7.1,5.33 0,4.73 -4.73,7.1 -14.21,7.1 -12.42,0 -24.85,-0.15 -37.28,-0.44 -12.43,-0.29 -23.82,-0.6 -34.19,-0.89 -10.35,-0.29 -18.94,-0.6 -25.74,-0.89 -6.81,-0.29 -10.81,-0.44 -11.99,-0.44 -1.19,0 -5.18,0.15 -11.99,0.44 -6.81,0.29 -14.65,0.6 -23.53,0.89 -8.88,0.29 -18.05,0.6 -27.52,0.89 -9.48,0.29 -17.47,0.44 -23.98,0.44 -9.48,0 -14.21,-2.37 -14.21,-7.1 0,-3.55 2.37,-5.33 7.1,-5.33 4.15,0 8.59,-0.29 13.32,-0.89 4.73,-0.6 9.17,-1.48 13.32,-2.66 8.88,-1.78 14.94,-7.1 18.19,-15.98 3.26,-8.87 5.77,-19.83 7.55,-32.84 2.37,-18.94 3.7,-45.14 4,-78.57 0.3,-33.44 0.44,-71.47 0.44,-114.09l0 -375.55 -131.4 1.76c-13.61,0 -25.31,0.6 -35.06,1.78 -9.77,1.19 -18.2,2.82 -25.31,4.88 -7.1,2.08 -13.03,4.88 -17.76,8.44 -4.73,3.55 -8.88,7.99 -12.43,13.32 -4.73,7.7 -8.13,13.47 -10.21,17.32 -2.07,3.84 -3.69,7.24 -4.87,10.21 -2.37,5.91 -5.33,8.88 -8.88,8.88 -2.97,0 -4.44,-2.66 -4.44,-7.99 0,-2.37 0.89,-8.14 2.66,-17.32 1.78,-9.17 3.84,-19.09 6.22,-29.75 2.36,-10.64 4.58,-20.41 6.65,-29.29 2.08,-8.88 3.41,-14.21 4,-15.98 1.19,-2.96 2.52,-6.51 4,-10.66 1.48,-4.14 3.11,-6.22 4.88,-6.22 2.97,0 7.26,1.48 12.88,4.44 5.62,2.96 14.36,5.04 26.2,6.22 13.02,1.18 26.63,2.22 40.84,3.11 14.21,0.89 23.98,1.33 29.3,1.33l332.93 0c14.21,0 26.49,-0.44 36.85,-1.33 10.35,-0.89 19.09,-1.93 26.18,-3.11 6.52,-1.18 11.85,-2.22 15.98,-3.11 4.15,-0.89 7.1,-1.33 8.88,-1.33 2.37,0 3.7,1.04 4,3.11 0.29,2.07 0.44,4.59 0.44,7.55 0,6.51 -0.15,14.79 -0.44,24.86 -0.29,10.06 -0.6,20.12 -0.89,30.18 -0.29,10.06 -0.6,19.09 -0.89,27.08 -0.29,7.99 -0.44,13.17 -0.44,15.54 0,7.69 -2.07,11.53 -6.22,11.53 -2.36,0 -4,-0.88 -4.88,-2.65 -0.89,-1.78 -1.62,-5.92 -2.22,-12.43l-0.89 -9.77c-0.58,-6.51 -2.66,-12.72 -6.22,-18.65 -3.55,-5.91 -9.31,-10.95 -17.3,-15.1 -7.99,-4.14 -18.94,-7.55 -32.86,-10.21 -13.9,-2.66 -31.51,-4.29 -52.82,-4.88l-111.87 -1.76zm323.18 296.54c0,-23.68 2.97,-48.84 8.88,-75.47 5.92,-26.64 15.1,-52.84 27.53,-78.57 12.43,-25.75 27.96,-50.31 46.61,-73.69 18.65,-23.38 40.99,-43.96 67.03,-61.72 26.04,-17.75 55.64,-31.8 88.79,-42.17 33.15,-10.36 70.14,-15.54 110.99,-15.54 49.71,0 95.88,7.7 138.5,23.09 42.61,15.39 79.46,37.44 110.53,66.14 31.08,28.71 55.49,63.63 73.25,104.77 17.76,41.13 26.64,87.44 26.64,138.95 0,49.71 -8.44,96.63 -25.31,140.72 -16.87,44.1 -40.7,82.57 -71.47,115.41 -30.78,32.86 -68.07,58.9 -111.86,78.13 -43.8,19.24 -92.34,28.86 -145.61,28.86 -60.97,0 -113.21,-10.66 -156.71,-31.97 -43.51,-21.3 -79.17,-48.83 -106.99,-82.57 -27.82,-33.73 -48.24,-71.17 -61.26,-112.31 -13.03,-41.14 -19.54,-81.84 -19.54,-122.07zm84.35 -24.86c0,51.49 7.26,98.25 21.76,140.28 14.5,42.03 34.62,77.84 60.37,107.42 25.75,29.6 55.79,52.39 90.12,68.38 34.33,15.97 71.61,23.96 111.86,23.96 20.13,0 44.1,-3.69 71.91,-11.1 27.82,-7.4 54.61,-22.05 80.35,-43.94 25.75,-21.9 47.65,-52.82 65.7,-92.78 18.05,-39.95 27.08,-92.19 27.08,-156.71 0,-53.27 -7.55,-100.32 -22.64,-141.17 -15.1,-40.84 -35.06,-75.02 -59.93,-102.54 -24.86,-27.53 -53.57,-48.4 -86.12,-62.59 -32.55,-14.21 -66.3,-21.31 -101.21,-21.31 -37.3,0 -71.78,6.06 -103.44,18.2 -31.66,12.13 -59.04,30.47 -82.13,55.04 -23.09,24.56 -41.14,55.04 -54.15,91.45 -13.03,36.4 -19.54,78.87 -19.54,127.4z"/>
   <path class="fil0" d="M9753.84 1702.35l0 158.02c0,65.12 1.18,113.36 3.55,144.72 2.36,31.37 7.69,50.91 15.98,58.61 3.55,3.55 7.84,6.66 12.86,9.32 5.04,2.66 11.54,4.73 19.54,6.2 7.99,1.48 18.05,2.66 30.19,3.55 12.13,0.89 26.78,1.33 43.94,1.33 23.67,0 44.84,-1.18 63.48,-3.55 18.65,-2.36 33.3,-10.06 43.96,-23.08 5.91,-7.1 10.95,-15.69 15.08,-25.75 4.15,-10.06 6.81,-19.23 7.99,-27.53 1.19,-7.69 3.86,-11.53 7.99,-11.53 3.55,0 5.33,4.44 5.33,13.31 0,2.37 -0.29,7.1 -0.89,14.21 -0.58,7.1 -1.62,15.1 -3.11,23.98 -1.47,8.88 -2.96,17.9 -4.44,27.08 -1.47,9.17 -3.11,17.01 -4.88,23.52 -1.78,5.33 -3.4,9.48 -4.88,12.43 -1.47,2.96 -3.98,5.33 -7.54,7.1 -3.55,1.78 -8.74,2.96 -15.54,3.55 -6.81,0.6 -16.14,0.89 -27.97,0.89 -31.96,0 -59.77,-0.29 -83.46,-0.89 -23.67,-0.6 -44.98,-1.18 -63.92,-1.78 -18.94,-1.18 -35.51,-1.93 -49.71,-2.22 -14.21,-0.29 -27.82,-0.44 -40.85,-0.44 -1.78,0 -6.06,0.15 -12.86,0.44 -6.81,0.29 -14.65,0.44 -23.53,0.44 -8.88,0.6 -17.91,1.04 -27.08,1.33 -9.17,0.29 -17.01,0.44 -23.52,0.44 -9.48,0 -14.21,-2.37 -14.21,-7.1 0,-3.55 2.36,-5.33 7.1,-5.33 4.14,0 8.58,-0.29 13.31,-0.89 4.74,-0.6 9.18,-1.48 13.32,-2.66 8.88,-1.78 14.94,-7.1 18.2,-15.98 3.26,-8.87 5.77,-19.83 7.55,-32.84 2.37,-18.94 3.7,-45.14 4,-78.57 0.29,-33.44 0.44,-71.47 0.44,-114.09l0 -156.25c0,-34.34 0,-62.45 0,-84.35 0,-21.91 0,-39.52 0,-52.84 0,-13.31 -0.15,-23.96 -0.44,-31.96 -0.29,-7.99 -0.74,-15.54 -1.33,-22.64 -1.18,-15.39 -4.15,-26.93 -8.88,-34.62 -4.73,-7.7 -14.5,-13.03 -29.3,-15.98 -3.55,-1.18 -8.42,-1.93 -14.64,-2.22 -6.22,-0.29 -11.4,-0.44 -15.54,-0.44 -4.73,0 -7.1,-1.78 -7.1,-5.33 0,-4.73 4.73,-7.1 14.21,-7.1 10.06,0 20.72,0.15 31.96,0.44 11.25,0.29 21.76,0.6 31.52,0.89 9.77,0.29 18.05,0.6 24.86,0.89 6.8,0.29 10.8,0.44 11.98,0.44 1.19,0 5.63,-0.15 13.32,-0.44 7.7,-0.29 16.58,-0.6 26.64,-0.89 10.06,-0.29 20.27,-0.6 30.62,-0.89 10.36,-0.29 18.8,-0.44 25.31,-0.44 9.48,0 14.21,2.37 14.21,7.1 0,3.55 -2.37,5.33 -7.1,5.33 -2.96,0 -7.26,0.15 -12.88,0.44 -5.62,0.29 -11.1,1.04 -16.43,2.22 -13.02,2.36 -21.74,7.55 -26.18,15.54 -4.44,7.99 -7.26,19.68 -8.44,35.06 -0.6,7.1 -1.04,14.65 -1.33,22.64 -0.29,7.99 -0.44,18.65 -0.44,31.96 0,13.32 0,30.93 0,52.84 0,21.9 0,50.01 0,84.35zm349.81 77.24c0,-23.68 2.97,-48.84 8.88,-75.47 5.92,-26.64 15.1,-52.84 27.53,-78.57 12.43,-25.75 27.96,-50.31 46.61,-73.69 18.65,-23.38 40.99,-43.96 67.03,-61.72 26.04,-17.75 55.64,-31.8 88.79,-42.17 33.15,-10.36 70.14,-15.54 110.99,-15.54 49.71,0 95.88,7.7 138.5,23.09 42.61,15.39 79.46,37.44 110.53,66.14 31.08,28.71 55.49,63.63 73.25,104.77 17.76,41.13 26.64,87.44 26.64,138.95 0,49.71 -8.44,96.63 -25.31,140.72 -16.87,44.1 -40.7,82.57 -71.47,115.41 -30.78,32.86 -68.07,58.9 -111.86,78.13 -43.8,19.24 -92.34,28.86 -145.61,28.86 -60.97,0 -113.21,-10.66 -156.71,-31.97 -43.51,-21.3 -79.17,-48.83 -106.99,-82.57 -27.82,-33.73 -48.24,-71.17 -61.26,-112.31 -13.03,-41.14 -19.54,-81.84 -19.54,-122.07zm84.35 -24.86c0,51.49 7.26,98.25 21.76,140.28 14.5,42.03 34.62,77.84 60.37,107.42 25.75,29.6 55.79,52.39 90.12,68.38 34.33,15.97 71.61,23.96 111.86,23.96 20.13,0 44.1,-3.69 71.91,-11.1 27.82,-7.4 54.61,-22.05 80.35,-43.94 25.75,-21.9 47.65,-52.82 65.7,-92.78 18.05,-39.95 27.08,-92.19 27.08,-156.71 0,-53.27 -7.55,-100.32 -22.64,-141.17 -15.1,-40.84 -35.06,-75.02 -59.93,-102.54 -24.86,-27.53 -53.57,-48.4 -86.12,-62.59 -32.55,-14.21 -66.3,-21.31 -101.21,-21.31 -37.3,0 -71.78,6.06 -103.44,18.2 -31.66,12.13 -59.04,30.47 -82.13,55.04 -23.09,24.56 -41.14,55.04 -54.15,91.45 -13.03,36.4 -19.54,78.87 -19.54,127.4zm1250.97 285.88l0 -150.93c0,-17.76 -0.44,-32.11 -1.33,-43.06 -0.89,-10.96 -2.66,-19.54 -5.33,-25.75 -2.66,-6.22 -6.66,-10.95 -11.99,-14.21 -5.33,-3.25 -12.42,-6.06 -21.3,-8.44 -3.55,-1.18 -8.44,-1.92 -14.65,-2.22 -6.22,-0.29 -11.39,-0.44 -15.54,-0.44 -4.73,0 -7.1,-1.78 -7.1,-5.33 0,-4.73 4.73,-7.1 14.21,-7.1 10.06,0 20.72,0.15 31.97,0.44 11.24,0.3 21.74,0.6 31.51,0.89 9.77,0.3 18.05,0.6 24.86,0.89 6.8,0.3 10.8,0.44 11.99,0.44 1.18,0 5.18,-0.14 11.98,-0.44 6.81,-0.29 14.65,-0.58 23.53,-0.89 8.88,-0.29 18.05,-0.58 27.53,-0.89 9.46,-0.29 17.46,-0.44 23.96,-0.44 9.48,0 14.21,2.37 14.21,7.1 0,3.55 -2.36,5.33 -7.1,5.33 -2.96,0 -6.06,0.15 -9.31,0.44 -3.26,0.3 -7.55,1.04 -12.88,2.22 -11.84,2.37 -19.98,7.55 -24.42,15.54 -4.44,7.99 -7.26,19.68 -8.44,35.08 -1.18,14.2 -1.78,28.4 -1.78,42.61 0,14.21 0,30.78 0,49.71l0 99.44c0,10.06 -0.15,17.9 -0.44,23.53 -0.29,5.62 -0.74,10.06 -1.33,13.31 -0.58,3.26 -1.78,5.48 -3.55,6.66 -1.78,1.19 -3.84,2.66 -6.22,4.44 -14.2,7.7 -29.6,14.06 -46.16,19.09 -16.58,5.04 -33.3,9.17 -50.16,12.43 -16.87,3.26 -33.15,5.48 -48.84,6.66 -15.68,1.18 -30.04,1.78 -43.06,1.78 -17.16,0 -37.3,-0.89 -60.37,-2.66 -23.09,-1.78 -47.8,-5.92 -74.13,-12.43 -26.35,-6.51 -52.98,-16.12 -79.91,-28.86 -26.93,-12.72 -52.84,-29.74 -77.69,-51.05 -13.61,-11.84 -26.79,-26.49 -39.52,-43.94 -12.72,-17.47 -23.96,-36.99 -33.73,-58.61 -9.77,-21.6 -17.61,-45.12 -23.53,-70.58 -5.91,-25.45 -8.88,-52.09 -8.88,-79.91 0,-35.51 4,-68.36 11.99,-98.54 7.99,-30.19 18.79,-57.57 32.41,-82.13 13.61,-24.56 29.44,-46.16 47.5,-64.81 18.05,-18.65 36.84,-34.19 56.37,-46.62 20.13,-12.42 40.54,-22.34 61.26,-29.74 20.72,-7.4 41.14,-13.03 61.27,-16.87 20.12,-3.84 39.79,-6.37 59.04,-7.55 19.23,-1.18 37.44,-1.78 54.6,-1.78 14.21,0 28.42,0.6 42.61,1.78 14.21,1.04 27.53,2.51 39.96,4.29 12.43,1.78 23.38,3.41 32.84,5.19 9.48,1.78 16.29,2.8 20.42,3.4 9.48,2.37 21.02,4.15 34.63,5.62 13.61,1.48 26.04,2.52 37.28,3.11 4.73,0.6 7.7,1.48 8.88,2.97 1.18,1.47 1.78,2.96 1.78,4.73 0,2.96 -0.29,7.1 -0.89,12.43 -0.6,5.33 -1.33,12.72 -2.22,22.19 -0.89,9.48 -1.62,21.6 -2.22,36.41 -0.6,14.79 -0.89,33.15 -0.89,55.04 0,7.1 -0.58,11.99 -1.78,14.65 -1.18,2.66 -3.25,4 -6.22,4 -2.96,0 -5.02,-4.44 -6.22,-13.32 -0.58,-6.51 -2.22,-15.24 -4.88,-26.2 -2.66,-10.95 -7.24,-21.74 -13.75,-32.4 -5.33,-8.28 -14.07,-16.72 -25.9,-25.31 -11.84,-8.58 -26.49,-16.28 -43.94,-23.09 -17.47,-6.8 -38.03,-12.42 -61.41,-16.86 -23.38,-4.44 -49.27,-6.66 -77.84,-6.66 -14.2,0 -28.85,0.58 -43.94,1.78 -15.1,1.18 -30.78,3.69 -46.76,7.55 -15.98,3.84 -32.41,9.77 -49.27,17.75 -17.02,7.99 -33.74,18.5 -50.31,31.68 -26.04,20.72 -47.36,50.45 -63.63,89.22 -16.28,38.92 -24.42,84.35 -24.42,136.59 0,31.37 3.4,60.37 10.21,87.15 6.81,26.64 15.1,50.46 24.86,71.47 9.91,21.02 20.27,39.07 31.22,53.86 10.95,14.8 20.27,26.04 27.97,33.74 35.66,34.33 73.09,58.89 112.6,73.4 39.36,14.5 79.62,21.74 120.45,21.74 7.85,0 16.43,-0.29 25.9,-0.89 9.46,-0.58 18.79,-1.62 27.96,-3.11 9.18,-1.47 17.91,-3.4 26.2,-5.77 8.44,-2.36 15.54,-5.32 21.45,-8.87 11.85,-6.52 17.76,-16.87 17.76,-31.08zm418.18 -338.26l0 156.25c0,42.62 0.15,80.66 0.44,114.09 0.29,33.44 1.62,59.64 4,78.57 1.18,13.02 3.84,23.98 7.99,32.84 4.14,8.88 13.02,14.21 26.63,15.98 6.52,1.18 13.76,2.07 21.76,2.66 7.99,0.6 14.06,0.89 18.2,0.89 4.73,0 7.1,1.78 7.1,5.33 0,4.73 -4.74,7.1 -14.21,7.1 -12.43,0 -24.86,-0.15 -37.3,-0.44 -12.42,-0.29 -23.82,-0.6 -34.18,-0.89 -10.36,-0.29 -18.94,-0.6 -25.75,-0.89 -6.8,-0.29 -10.8,-0.44 -11.99,-0.44 -1.18,0 -5.18,0.15 -11.98,0.44 -6.81,0.29 -14.65,0.6 -23.53,0.89 -8.88,0.29 -18.05,0.6 -27.53,0.89 -9.46,0.29 -17.46,0.44 -23.96,0.44 -9.48,0 -14.21,-2.37 -14.21,-7.1 0,-3.55 2.36,-5.33 7.1,-5.33 4.14,0 8.58,-0.29 13.31,-0.89 4.74,-0.6 9.18,-1.48 13.32,-2.66 8.88,-1.78 14.94,-7.1 18.2,-15.98 3.26,-8.87 5.77,-19.83 7.55,-32.84 2.37,-18.94 3.7,-45.14 4,-78.57 0.29,-33.44 0.44,-71.47 0.44,-114.09l0 -156.25c0,-34.34 0,-62.45 0,-84.35 0,-21.91 0,-39.52 0,-52.84 0,-13.31 -0.15,-23.96 -0.44,-31.96 -0.29,-7.99 -0.74,-15.54 -1.33,-22.64 -1.78,-29 -11.84,-45.58 -30.19,-49.71 -4.73,-1.18 -9.77,-2.07 -15.08,-2.66 -5.33,-0.6 -9.48,-0.89 -12.43,-0.89 -4.74,0 -7.1,-1.78 -7.1,-5.33 0,-4.73 4.73,-7.1 14.21,-7.1 7.09,0 15.68,0.15 25.74,0.44 10.06,0.29 19.54,0.6 28.42,0.89 8.88,0.29 16.72,0.6 23.53,0.89 6.8,0.29 10.8,0.44 11.98,0.44 1.19,0 5.19,-0.15 11.99,-0.44 6.81,-0.29 14.65,-0.6 23.53,-0.89 8.88,-0.29 18.05,-0.6 27.53,-0.89 9.46,-0.29 17.46,-0.44 23.96,-0.44 9.48,0 14.21,2.37 14.21,7.1 0,3.55 -2.37,5.33 -7.1,5.33 -2.96,0 -6.06,0.15 -9.32,0.44 -3.25,0.29 -7.55,1.04 -12.88,2.22 -11.84,2.36 -19.97,7.55 -24.41,15.54 -4.44,7.99 -7.26,19.68 -8.44,35.06 -0.6,7.1 -1.04,14.65 -1.33,22.64 -0.29,7.99 -0.44,18.65 -0.44,31.96 0,13.32 0,30.93 0,52.84 0,21.9 0,50.01 0,84.35zm378.22 426.16c-20.72,0 -41.14,-1.78 -61.26,-5.18 -20.13,-3.41 -39.36,-9.48 -57.71,-18.2 -6.52,-2.82 -10.36,-6.22 -11.54,-9.92 -1.19,-3.84 -1.78,-11.68 -1.78,-23.52 0,-22.49 0.58,-42.03 1.78,-58.61 1.18,-16.57 2.07,-28.4 2.66,-35.51 0.58,-9.48 2.96,-14.21 7.1,-14.21 4.14,0 6.22,3.26 6.22,9.77 0,4.15 0.14,9.02 0.44,14.65 0.29,5.62 1.03,11.68 2.22,18.19 3.54,16.58 9.46,30.64 17.75,42.18 8.3,11.54 18.5,20.87 30.64,27.97 12.13,7.09 25.31,12.28 39.5,15.53 14.21,3.26 28.71,4.88 43.51,4.88 21.3,0 39.95,-3.55 55.93,-10.66 15.98,-7.1 29.15,-16.12 39.5,-27.07 10.36,-10.95 18.2,-23.68 23.53,-37.88 5.33,-14.21 7.99,-28.42 7.99,-42.62 0,-15.39 -1.78,-29.44 -5.33,-42.17 -3.55,-12.88 -9.32,-25.31 -17.32,-37.44 -7.99,-12.14 -18.5,-24.57 -31.51,-37.3 -13.03,-12.72 -29,-27.08 -47.95,-43.21l-39.95 -32.86c-23.67,-19.52 -42.92,-37.57 -57.71,-54.15 -14.8,-16.57 -26.49,-32.84 -35.08,-48.54 -8.58,-15.68 -14.5,-30.78 -17.76,-45.28 -3.25,-14.5 -4.87,-29.46 -4.87,-44.98 0,-23.68 4.29,-45.29 12.86,-64.81 8.59,-19.54 20.87,-36.56 36.85,-50.76 15.98,-14.21 35.22,-25.16 57.71,-32.86 22.49,-7.7 47.94,-11.54 76.35,-11.54 17.16,0 32.41,0.75 45.72,2.22 13.32,1.48 25.6,3.7 36.85,6.66 8.28,1.78 14.65,2.96 19.09,3.55 4.44,0.6 8.44,0.89 11.99,0.89 5.91,0 8.87,2.07 8.87,6.22 0,2.37 -0.58,11.1 -1.78,26.2 -1.18,15.08 -1.78,37.73 -1.78,67.92 0,13.61 -2.07,20.41 -6.2,20.41 -2.97,0 -4.74,-1.03 -5.33,-3.11 -0.6,-2.07 -1.19,-4.88 -1.78,-8.42 -0.6,-5.33 -1.93,-12.88 -4,-22.64 -2.08,-9.77 -4.59,-17.02 -7.55,-21.76 -1.19,-2.36 -3.86,-6.22 -7.99,-11.54 -4.15,-5.33 -10.5,-10.66 -19.09,-15.97 -8.58,-5.33 -19.68,-9.92 -33.29,-13.76 -13.62,-3.86 -30.48,-5.77 -50.62,-5.77 -30.78,0 -56.67,9.02 -77.69,27.07 -21.01,18.06 -31.51,43.36 -31.51,75.91 0,12.43 1.62,24.13 4.88,35.08 3.25,10.95 9.02,22.05 17.3,33.29 8.3,11.25 19.4,23.38 33.3,36.41 13.9,13.02 31.52,27.82 52.82,44.39l24.86 19.54c26.04,20.72 47.5,39.96 64.37,57.71 16.87,17.76 30.19,34.78 39.96,51.06 9.76,16.28 16.42,32.55 19.97,48.83 3.55,16.28 5.33,33.3 5.33,51.05 0,8.88 -1.03,19.54 -3.11,31.97 -2.07,12.43 -5.91,25.45 -11.54,39.06 -5.62,13.61 -13.31,27.08 -23.08,40.4 -9.77,13.32 -22.35,25.3 -37.74,35.95 -18.94,13.61 -39.95,23.24 -63.03,28.86 -23.09,5.62 -46.76,8.44 -71.03,8.44zm633.03 -645.46l0 375.55c0,42.62 0.15,80.66 0.44,114.09 0.3,33.44 1.64,59.64 4,78.57 1.19,13.02 3.86,23.98 7.99,32.84 4.15,8.88 13.03,14.21 26.64,15.98 6.51,1.18 13.76,2.07 21.74,2.66 7.99,0.6 14.07,0.89 18.2,0.89 4.74,0 7.1,1.78 7.1,5.33 0,4.73 -4.73,7.1 -14.21,7.1 -12.42,0 -24.85,-0.15 -37.28,-0.44 -12.43,-0.29 -23.82,-0.6 -34.19,-0.89 -10.35,-0.29 -18.94,-0.6 -25.74,-0.89 -6.81,-0.29 -10.81,-0.44 -11.99,-0.44 -1.19,0 -5.18,0.15 -11.99,0.44 -6.81,0.29 -14.65,0.6 -23.53,0.89 -8.88,0.29 -18.05,0.6 -27.52,0.89 -9.48,0.29 -17.47,0.44 -23.98,0.44 -9.48,0 -14.21,-2.37 -14.21,-7.1 0,-3.55 2.37,-5.33 7.1,-5.33 4.15,0 8.59,-0.29 13.32,-0.89 4.73,-0.6 9.17,-1.48 13.32,-2.66 8.88,-1.78 14.94,-7.1 18.19,-15.98 3.26,-8.87 5.77,-19.83 7.55,-32.84 2.37,-18.94 3.7,-45.14 4,-78.57 0.3,-33.44 0.44,-71.47 0.44,-114.09l0 -375.55 -131.4 1.76c-13.61,0 -25.31,0.6 -35.06,1.78 -9.77,1.19 -18.2,2.82 -25.31,4.88 -7.1,2.08 -13.03,4.88 -17.76,8.44 -4.73,3.55 -8.88,7.99 -12.43,13.32 -4.73,7.7 -8.13,13.47 -10.21,17.32 -2.07,3.84 -3.69,7.24 -4.87,10.21 -2.37,5.91 -5.33,8.88 -8.88,8.88 -2.97,0 -4.44,-2.66 -4.44,-7.99 0,-2.37 0.89,-8.14 2.66,-17.32 1.78,-9.17 3.84,-19.09 6.22,-29.75 2.36,-10.64 4.58,-20.41 6.65,-29.29 2.08,-8.88 3.41,-14.21 4,-15.98 1.19,-2.96 2.52,-6.51 4,-10.66 1.48,-4.14 3.11,-6.22 4.88,-6.22 2.97,0 7.26,1.48 12.88,4.44 5.62,2.96 14.36,5.04 26.2,6.22 13.02,1.18 26.63,2.22 40.84,3.11 14.21,0.89 23.98,1.33 29.3,1.33l332.93 0c14.21,0 26.49,-0.44 36.85,-1.33 10.35,-0.89 19.09,-1.93 26.18,-3.11 6.52,-1.18 11.85,-2.22 15.98,-3.11 4.15,-0.89 7.1,-1.33 8.88,-1.33 2.37,0 3.7,1.04 4,3.11 0.29,2.07 0.44,4.59 0.44,7.55 0,6.51 -0.15,14.79 -0.44,24.86 -0.29,10.06 -0.6,20.12 -0.89,30.18 -0.29,10.06 -0.6,19.09 -0.89,27.08 -0.29,7.99 -0.44,13.17 -0.44,15.54 0,7.69 -2.07,11.53 -6.22,11.53 -2.36,0 -4,-0.88 -4.88,-2.65 -0.89,-1.78 -1.62,-5.92 -2.22,-12.43l-0.89 -9.77c-0.58,-6.51 -2.66,-12.72 -6.22,-18.65 -3.55,-5.91 -9.31,-10.95 -17.3,-15.1 -7.99,-4.14 -18.94,-7.55 -32.86,-10.21 -13.9,-2.66 -31.51,-4.29 -52.82,-4.88l-111.87 -1.76zm350.71 535.36l201.54 -551.34c5.33,-14.8 9.17,-24.27 11.54,-28.42 2.37,-4.14 5.04,-6.22 7.99,-6.22 2.96,0 5.62,1.93 7.99,5.77 2.36,3.84 6.22,12.58 11.54,26.2 2.36,5.91 7.84,19.98 16.42,42.17 8.59,22.2 18.94,49.42 31.08,81.68 12.13,32.26 25.6,67.63 40.39,106.1 14.8,38.46 29.46,76.49 43.96,114.08 14.5,37.59 28.4,73.25 41.72,106.99 13.32,33.73 24.42,61.86 33.3,84.35 7.69,19.52 15.24,35.51 22.64,47.94 7.4,12.43 14.2,22.2 20.41,29.29 6.22,7.1 12.14,12.14 17.76,15.1 5.62,2.97 10.81,5.04 15.54,6.22 6.51,2.37 12.88,3.84 19.09,4.44 6.2,0.6 11.68,0.89 16.42,0.89 5.92,0 8.88,1.78 8.88,5.33 0,2.96 -1.78,4.88 -5.33,5.77 -3.55,0.89 -7.69,1.33 -12.43,1.33 -3.55,0 -9.91,0 -19.08,0 -9.18,0 -20.13,0 -32.86,0 -12.72,0 -26.64,-0.15 -41.72,-0.44 -15.1,-0.29 -30.34,-0.74 -45.73,-1.33 -8.28,-0.6 -14.79,-1.04 -19.52,-1.33 -4.74,-0.29 -7.1,-1.93 -7.1,-4.88 0,-2.96 2.07,-5.04 6.22,-6.22 2.96,-1.18 5.33,-3.69 7.09,-7.55 1.78,-3.84 1.19,-9.32 -1.76,-16.43l-82.57 -218.41c-1.78,-3.55 -4.44,-5.32 -7.99,-5.32l-190.89 0c-4.14,0 -7.1,2.36 -8.88,7.09l-53.27 157.15c-8.28,23.09 -12.43,42.92 -12.43,59.48 0,8.88 3.7,15.4 11.1,19.54 7.4,4.15 14.94,6.22 22.64,6.22l8.88 0c5.91,0 8.88,1.78 8.88,5.33 0,4.73 -4.44,7.1 -13.32,7.1 -5.33,0 -11.54,-0.15 -18.65,-0.44 -7.1,-0.29 -13.9,-0.6 -20.42,-0.89 -6.51,-0.29 -12.57,-0.6 -18.19,-0.89 -5.63,-0.29 -9.63,-0.44 -11.99,-0.44 -2.37,0 -6.95,0.15 -13.76,0.44 -6.81,0.29 -14.94,0.6 -24.42,0.89 -9.46,0.29 -19.52,0.6 -30.18,0.89 -10.66,0.29 -21.31,0.44 -31.97,0.44 -11.24,0 -16.87,-2.37 -16.87,-7.1 0,-3.55 2.66,-5.33 7.99,-5.33 2.97,0 7.1,-0.15 12.43,-0.44 5.33,-0.29 9.77,-0.74 13.32,-1.33 20.72,-2.96 36.26,-11.99 46.61,-27.07 10.36,-15.1 19.69,-33.9 27.97,-56.39zm124.29 -196.21l169.58 0c3.55,0 4.73,-2.07 3.55,-6.22l-84.35 -239.72c-4.73,-13.02 -9.17,-13.02 -13.32,0l-78.13 239.72c-1.78,4.15 -0.89,6.22 2.66,6.22z"/>
  </g>
  <path class="fil0" d="M4604.4 780.84l292.14 0c27.92,0 51.55,-1.24 70.89,-3.75 19.33,-2.51 35.27,-6.09 47.8,-10.74 12.53,-4.66 22.73,-10.2 30.61,-16.64 7.88,-6.44 14.68,-13.6 20.41,-21.48 5.01,-7.17 9.48,-16.66 13.42,-28.47 3.93,-11.81 6.62,-21.65 8.06,-29.53 2.14,-11.46 5.37,-17.19 9.67,-17.19 3.58,0 5.91,1.61 6.98,4.83 1.08,3.22 1.61,9.84 1.61,19.87 0,8.6 -0.89,18.44 -2.68,29.54 -1.8,11.1 -3.77,22.56 -5.91,34.37 -2.14,11.81 -4.48,23.09 -6.98,33.83 -2.51,10.74 -4.48,19.33 -5.91,25.78 -1.43,6.44 -2.87,11.46 -4.3,15.03 -1.43,3.59 -3.22,6.44 -5.37,8.6 -2.14,2.14 -4.83,3.4 -8.06,3.75 -3.22,0.36 -8.06,0.53 -14.5,0.53 -90.22,0 -180.44,-0.89 -270.66,-2.68 -90.22,-1.79 -182.6,-2.69 -277.1,-2.69 -12.89,0 -19.33,-2.87 -19.33,-8.59 0,-2.87 0.89,-6.09 2.68,-9.67 1.79,-3.59 5.91,-10.39 12.36,-20.41 80.2,-121.73 160.03,-242.56 239.52,-362.49 79.48,-119.94 156.81,-241.13 231.99,-363.57l-233.07 0c-13.6,0 -27.74,0.18 -42.42,0.53 -14.68,0.37 -28.82,1.43 -42.43,3.22 -13.6,1.8 -26.49,4.12 -38.67,6.99 -12.17,2.87 -22.56,6.44 -31.14,10.73 -19.33,10.03 -34.01,23.63 -44.03,40.82 -10.03,17.18 -15.76,31.87 -17.19,44.03 -1.43,7.88 -3.04,13.07 -4.83,15.58 -1.79,2.5 -4.12,3.75 -6.98,3.75 -4.3,0 -6.44,-4.66 -6.44,-13.97 0,-2.85 0.89,-10.55 2.68,-23.09 1.79,-12.53 3.77,-26.31 5.91,-41.36 2.14,-15.03 4.48,-29.89 6.98,-44.56 2.51,-14.68 4.48,-25.95 5.91,-33.83 2.14,-13.61 5.73,-20.41 10.74,-20.41 5.01,0 10.2,1.08 15.57,3.22 5.38,2.14 15.22,3.58 29.54,4.3 50.83,2.14 90.58,3.22 119.22,3.22 28.64,0 51.2,0 67.67,0l299.66 0c14.32,0 21.48,2.87 21.48,8.59 0,2.14 -0.18,3.95 -0.53,5.37 -0.36,1.43 -1.61,3.95 -3.75,7.52 -78.05,124.59 -157.17,248.11 -237.37,370.55 -80.2,122.44 -161.46,245.96 -243.81,370.55zm-388.8 -454.32l0 189.04c0,51.55 0.18,97.55 0.53,138.01 0.36,40.45 1.97,72.14 4.83,95.05 1.43,15.76 4.66,29 9.67,39.74 5.01,10.74 15.76,17.19 32.22,19.33 7.88,1.43 16.64,2.51 26.31,3.22 9.67,0.71 17.01,1.08 22.02,1.08 5.73,0 8.59,2.14 8.59,6.44 0,5.72 -5.72,8.59 -17.18,8.59 -15.05,0 -30.08,-0.18 -45.11,-0.53 -15.05,-0.37 -28.82,-0.72 -41.36,-1.08 -12.53,-0.36 -22.91,-0.71 -31.14,-1.08 -8.23,-0.36 -13.07,-0.53 -14.5,-0.53 -1.43,0 -6.27,0.18 -14.5,0.53 -8.23,0.37 -17.72,0.72 -28.47,1.08 -10.74,0.36 -21.84,0.71 -33.3,1.08 -11.46,0.36 -21.12,0.53 -29,0.53 -11.46,0 -17.18,-2.87 -17.18,-8.59 0,-4.3 2.85,-6.44 8.59,-6.44 5.01,0 10.38,-0.37 16.11,-1.08 5.73,-0.71 11.1,-1.79 16.11,-3.22 10.74,-2.14 18.08,-8.59 22.02,-19.33 3.93,-10.74 6.98,-23.99 9.12,-39.74 2.87,-22.91 4.48,-54.6 4.83,-95.05 0.37,-40.45 0.55,-86.45 0.55,-138.01l0 -189.04c0,-41.53 0,-75.54 0,-102.03 0,-26.5 0,-47.8 0,-63.91 0,-16.11 -0.18,-29 -0.55,-38.67 -0.36,-9.67 -0.89,-18.8 -1.61,-27.39 -2.14,-35.09 -14.32,-55.13 -36.51,-60.14 -5.73,-1.43 -11.82,-2.51 -18.27,-3.22 -6.44,-0.72 -11.46,-1.08 -15.03,-1.08 -5.73,0 -8.59,-2.14 -8.59,-6.44 0,-5.72 5.72,-8.59 17.18,-8.59 8.6,0 18.98,0.18 31.16,0.53 12.17,0.36 23.62,0.72 34.37,1.08 10.74,0.36 20.23,0.71 28.47,1.07 8.23,0.37 13.07,0.55 14.5,0.55 1.43,0 6.27,-0.18 14.5,-0.55 8.23,-0.36 17.72,-0.71 28.45,-1.07 10.74,-0.36 21.84,-0.72 33.3,-1.08 11.46,-0.36 21.12,-0.53 29,-0.53 11.46,0 17.19,2.87 17.19,8.59 0,4.3 -2.87,6.44 -8.6,6.44 -3.58,0 -7.33,0.18 -11.28,0.53 -3.93,0.37 -9.12,1.26 -15.57,2.69 -14.32,2.87 -24.17,9.13 -29.54,18.8 -5.37,9.67 -8.77,23.81 -10.2,42.42 -0.71,8.59 -1.26,17.72 -1.61,27.39 -0.36,9.67 -0.53,22.56 -0.53,38.67 0,16.11 0,37.41 0,63.91 0,26.49 0,60.5 0,102.03zm-1043.99 156.82l0 -156.82c0,-41.53 0,-75.54 0,-102.03 0,-26.5 0,-47.8 0,-63.91 0,-16.11 -0.18,-29 -0.53,-38.67 -0.37,-9.67 -0.9,-18.8 -1.61,-27.39 -1.43,-18.61 -5.01,-32.58 -10.74,-41.89 -5.73,-9.31 -17.54,-15.76 -35.44,-19.33 -4.3,-1.43 -10.2,-2.32 -17.72,-2.69 -7.52,-0.36 -13.79,-0.53 -18.8,-0.53 -5.72,0 -8.59,-2.14 -8.59,-6.44 0,-5.72 5.73,-8.59 17.19,-8.59 12.17,0 24.88,0.18 38.12,0.53 13.26,0.36 25.78,0.72 37.42,1.08 11.81,0.36 22.19,0.71 30.97,1.07 8.77,0.37 14.32,0.55 16.47,0.55 2.14,0 7.52,-0.18 15.93,-0.55 8.41,-0.36 18.08,-0.71 28.82,-1.07 10.55,-0.36 21.48,-0.72 32.58,-1.08 11.1,-0.36 20.59,-0.53 28.47,-0.53 11.46,0 17.18,2.87 17.18,8.59 0,4.3 -2.85,6.44 -8.59,6.44 -3.58,0 -7.33,0.18 -11.28,0.53 -3.93,0.37 -9.13,1.26 -15.58,2.69 -14.31,2.14 -24.17,8.23 -29.53,18.25 -5.37,10.03 -8.77,24.36 -10.2,42.97 -0.72,8.59 -1.26,17.72 -1.61,27.39 -0.36,9.67 -0.55,22.56 -0.55,38.67 0,16.11 0,37.41 0,63.91 0,26.49 0,60.5 0,102.03l0 150.38c0,38.67 1.98,72.13 5.91,100.42 3.95,28.28 9.49,52.81 16.64,73.58 7.17,20.77 15.76,38.49 25.97,53.17 10.02,14.68 20.75,27.39 32.22,38.12 26.49,25.07 52.62,41.18 78.04,48.33 25.42,7.17 53.7,10.74 84.49,10.74 32.94,0 64.63,-7.15 94.7,-21.48 30.26,-14.32 54.95,-32.94 74.29,-55.85 25.24,-30.79 41.89,-68.38 50.13,-112.78 8.23,-44.4 12.34,-94.52 12.34,-150.36l0 -134.26c0,-41.53 0,-75.54 0,-102.03 0,-26.5 0,-47.8 0,-63.91 0,-16.11 -0.18,-29 -0.53,-38.67 -0.36,-9.67 -0.9,-18.8 -1.61,-27.39 -1.43,-18.61 -5.01,-32.58 -10.74,-41.89 -5.72,-9.31 -17.54,-15.76 -35.44,-19.33 -4.29,-1.43 -10.2,-2.32 -17.72,-2.69 -7.51,-0.36 -13.78,-0.53 -18.79,-0.53 -5.73,0 -8.6,-2.14 -8.6,-6.44 0,-5.72 5.73,-8.59 17.19,-8.59 12.17,0 24.7,0.18 37.59,0.53 12.89,0.36 24.71,0.72 35.44,1.08 10.74,0.36 19.88,0.71 27.39,1.07 7.52,0.37 12,0.55 13.43,0.55 2.14,0 6.44,-0.18 12.89,-0.55 6.44,-0.36 14.13,-0.71 23.09,-1.07 8.94,-0.36 18.25,-0.72 27.92,-1.08 9.67,-0.36 18.44,-0.53 26.32,-0.53 11.46,0 17.18,2.87 17.18,8.59 0,4.3 -2.87,6.44 -8.59,6.44 -3.58,0 -7.34,0.18 -11.28,0.53 -3.95,0.37 -9.13,1.26 -15.58,2.69 -14.32,3.58 -24.17,10.02 -29.53,19.33 -5.37,9.31 -8.78,23.28 -10.2,41.89 -0.72,8.59 -1.26,17.72 -1.61,27.39 -0.37,9.67 -0.55,22.56 -0.55,38.67 0,16.11 0,37.41 0,63.91 0,26.49 0,60.5 0,102.03l0 114.93c0,29.35 -1.07,58.89 -3.22,88.61 -2.14,29.71 -6.8,58.71 -13.95,87 -7.17,28.28 -17.19,54.78 -30.26,79.48 -12.89,24.7 -30.08,46.72 -51.55,66.05 -19.33,17.19 -39.02,30.97 -58.72,41.36 -19.69,10.38 -38.84,18.43 -57.45,24.17 -18.8,5.72 -37.05,9.49 -54.97,11.28 -17.9,1.79 -34.72,2.68 -50.65,2.68 -9.31,0 -22.38,-0.53 -39.2,-1.61 -16.83,-1.07 -35.62,-4.11 -56.57,-9.12 -20.77,-5.01 -42.08,-12.71 -63.91,-23.1 -22.02,-10.38 -42.61,-24.52 -61.94,-42.42 -12.7,-12.89 -24.7,-27.39 -36.15,-43.5 -11.28,-16.11 -21.12,-35.44 -29.72,-58 -8.41,-22.56 -15.03,-48.51 -19.51,-77.86 -4.66,-29.37 -6.98,-63.73 -6.98,-103.11zm-1095.89 340.47c-20.77,0 -35.62,-6.44 -44.58,-19.33 -8.96,-12.89 -13.42,-26.13 -13.42,-39.74 0,-6.44 1.07,-13.07 3.22,-19.87 2.14,-6.8 5.72,-13.07 10.73,-18.8 5.01,-5.72 11.1,-10.55 18.27,-14.5 7.15,-3.93 16.11,-5.9 26.84,-5.9 16.48,0 30.43,5.01 41.89,15.03 11.47,10.02 17.19,23.63 17.19,40.81 0,17.19 -5.37,31.87 -16.11,44.04 -10.74,12.17 -25.42,18.25 -44.03,18.25zm-730.36 -755.06l0 351.21c0,5.73 2.51,10.02 7.52,12.89 7.88,5.01 22.73,9.13 44.56,12.36 21.84,3.22 44.58,4.83 68.21,4.83 12.89,0 26.49,-1.26 40.81,-3.75 14.32,-2.51 27.57,-8.06 39.74,-16.66 18.61,-12.89 34.19,-33.48 46.72,-61.75 12.53,-28.29 18.8,-62.83 18.8,-103.65 0,-67.3 -16.48,-119.93 -49.41,-157.89 -32.94,-37.94 -78.41,-56.92 -136.41,-56.92 -16.47,0 -31.14,0.72 -44.03,2.14 -12.89,1.43 -22.2,2.87 -27.93,4.3 -5.72,2.14 -8.59,6.44 -8.59,12.89zm-85.92 446.81l0 -189.04c0,-41.53 0,-75.54 0,-102.03 0,-26.5 0,-47.8 0,-63.91 0,-16.11 -0.18,-29 -0.55,-38.67 -0.36,-9.67 -0.89,-18.8 -1.61,-27.39 -1.42,-18.61 -5.01,-32.58 -10.73,-41.89 -5.73,-9.31 -17.54,-15.76 -35.44,-19.33 -4.3,-1.43 -10.21,-2.32 -17.72,-2.69 -7.52,-0.36 -13.79,-0.53 -18.8,-0.53 -5.73,0 -8.59,-2.14 -8.59,-6.44 0,-5.72 5.72,-8.59 17.18,-8.59 12.18,0 25.07,0.18 38.67,0.53 13.61,0.36 26.32,0.72 38.13,1.08 11.81,0.36 21.84,0.71 30.08,1.07 8.23,0.37 13.07,0.55 14.5,0.55 2.87,0 9.49,-0.18 19.87,-0.55 10.39,-0.36 22.2,-0.71 35.44,-1.07 13.24,-0.36 26.31,-0.72 39.2,-1.08 12.89,-0.36 23.63,-0.53 32.22,-0.53 34.38,0 68.57,2.68 102.58,8.06 34.01,5.37 65.34,18.43 93.99,39.2 6.44,5.01 13.95,12 22.56,20.94 8.59,8.96 16.64,19.51 24.17,31.69 7.51,12.17 13.95,26.13 19.33,41.89 5.37,15.76 8.06,32.93 8.06,51.55 0,40.1 -9.67,80.38 -29,120.83 -19.33,40.45 -52.99,82.88 -100.96,127.27 44.39,56.57 84.85,108.12 121.36,154.66 36.52,46.54 70.53,86.64 102.04,120.3 29.35,30.79 55.13,50.83 77.33,60.14 22.19,9.31 40.09,15.03 53.7,17.19 10.02,1.43 18.61,2.32 25.78,2.68 7.15,0.37 12.53,0.55 16.11,0.55 6.44,0 9.67,2.14 9.67,6.44 0,3.58 -1.79,5.9 -5.37,6.98 -3.59,1.08 -10.39,1.61 -20.41,1.61l-76.25 0c-30.08,0 -53.36,-1.43 -69.82,-4.3 -16.47,-2.85 -31.5,-8.23 -45.11,-16.11 -22.91,-12.17 -45.11,-31.32 -66.59,-57.45 -21.48,-26.15 -47.62,-59.61 -78.41,-100.43 -11.46,-15.03 -22.91,-30.43 -34.37,-46.18 -11.46,-15.76 -22.38,-30.8 -32.77,-45.11 -10.38,-14.32 -20.04,-27.39 -29,-39.21 -8.94,-11.81 -15.92,-21.3 -20.94,-28.45 -4.29,-4.3 -8.94,-6.44 -13.95,-6.44l-132.11 -2.16c-5.01,0 -7.52,2.87 -7.52,8.6l0 25.78c0,51.55 0.18,97.55 0.53,138.01 0.37,40.45 1.98,72.14 4.83,95.05 1.43,15.76 4.66,29 9.67,39.74 5.02,10.74 15.76,17.19 32.22,19.33 7.88,1.43 16.66,2.51 26.32,3.22 9.67,0.71 17,1.08 22.01,1.08 5.73,0 8.6,2.14 8.6,6.44 0,5.72 -5.73,8.59 -17.19,8.59 -15.03,0 -30.08,-0.18 -45.11,-0.53 -15.03,-0.37 -28.82,-0.72 -41.36,-1.08 -12.52,-0.36 -22.91,-0.71 -31.14,-1.08 -8.23,-0.36 -13.07,-0.53 -14.5,-0.53 0,0 -3.75,0.18 -11.28,0.53 -7.52,0.37 -16.64,0.72 -27.39,1.08 -10.74,0.36 -21.84,0.71 -33.3,1.08 -11.46,0.36 -21.12,0.53 -29,0.53 -11.46,0 -17.18,-2.87 -17.18,-8.59 0,-4.3 2.85,-6.44 8.59,-6.44 5.01,0 10.38,-0.37 16.11,-1.08 5.73,-0.71 11.1,-1.79 16.11,-3.22 10.74,-2.14 18.08,-8.59 22.02,-19.33 3.93,-10.74 6.98,-23.99 9.12,-39.74 2.87,-22.91 4.48,-54.6 4.83,-95.05 0.37,-40.45 0.55,-86.45 0.55,-138.01zm-894.69 -206.22l0 133.17c0,28.64 0,55.85 0,81.63 0,25.78 0.18,49.04 0.53,69.81 0.36,20.77 0.72,38.31 1.08,52.63 0.36,14.32 0.53,23.99 0.53,29 0,6.44 0.36,13.79 1.08,22.02 0.71,8.23 1.43,16.29 2.14,24.17 0.72,7.88 1.79,15.03 3.22,21.48 1.43,6.44 3.22,11.1 5.37,13.97 3.59,5.01 9.13,10.02 16.66,15.03 7.51,5.01 18.25,9.67 32.22,13.97 13.95,4.29 31.87,7.69 53.7,10.2 21.84,2.51 48.51,3.75 80.02,3.75 50.12,0 97.2,-8.59 141.24,-25.78 44.03,-17.18 82.16,-41.89 114.39,-74.11 13.6,-13.6 25.78,-30.06 36.51,-49.4 10.74,-19.33 19.88,-40.28 27.39,-62.83 7.52,-22.56 13.07,-46.01 16.66,-70.35 3.58,-24.34 5.37,-49.06 5.37,-74.11 0,-34.37 -3.22,-65.52 -9.67,-93.44 -6.44,-27.92 -14.85,-53.17 -25.24,-75.72 -10.38,-22.56 -21.65,-42.24 -33.83,-59.08 -12.17,-16.82 -23.62,-30.97 -34.37,-42.42 -25.07,-26.5 -51.55,-47.8 -79.48,-63.91 -27.93,-16.11 -56.58,-28.47 -85.93,-37.05 -29.35,-8.59 -59.61,-14.14 -90.75,-16.64 -31.16,-2.51 -62.83,-3.77 -95.05,-3.77 -5.73,0 -12,0.19 -18.8,0.55 -6.8,0.36 -13.78,0.89 -20.94,1.61 -7.15,0.71 -13.42,1.61 -18.8,2.68 -5.37,1.08 -9.12,1.98 -11.28,2.69 -8.59,3.58 -12.89,10.74 -12.89,21.48 0,9.31 -0.18,22.56 -0.53,39.74 -0.36,17.19 -0.53,36.34 -0.53,57.47 0,21.12 0,43.14 0,66.05 0,22.91 0,44.75 0,65.52zm-98.67 -236.78c-1.29,-0.04 -2.51,-0.01 -3.6,0.05 -27.5,1.67 -50.46,4.2 -68.88,7.54 -18.42,3.37 -32.34,6.28 -41.79,8.75 -18.32,4.8 -39.79,12.75 -64.44,23.81 -24.61,11.09 -48.45,24.56 -71.46,40.47 -4.55,2.93 -7.94,4.68 -10.16,5.26 -1.12,0.3 -2.23,0.01 -3.36,-0.86 -1.13,-0.86 -1.84,-1.85 -2.13,-2.93 -0.9,-3.25 0.8,-5.72 3.81,-8.84 62.95,-65.17 133.85,-109.72 224.87,-126.36 4.28,-0.79 8.35,-0.81 12.28,-0.3 27.74,-0.34 69.91,-0.84 131.6,-2.49 13.23,-0.34 27.74,-0.72 43.5,-1.08 15.76,-0.36 31.87,-0.53 48.33,-0.53 26.49,0 57.82,0.18 93.98,0.53 36.17,0.36 73.93,4.12 113.32,11.28 39.38,7.17 78.4,19.16 117.06,35.98 38.67,16.83 74.11,41.71 106.33,74.65 13.61,14.32 26.68,30.43 39.21,48.33 12.52,17.9 23.62,38.12 33.29,60.68 9.67,22.56 17.37,47.44 23.1,74.65 5.72,27.21 8.59,56.92 8.59,89.14 0,33.65 -3.22,65.52 -9.67,95.6 -6.44,30.06 -15.03,57.81 -25.78,83.23 -10.74,25.42 -23.09,48.51 -37.05,69.28 -13.97,20.77 -28.47,39.03 -43.5,54.78 -11.46,12.18 -26.31,25.42 -44.58,39.74 -18.25,14.32 -40.63,27.74 -67.12,40.28 -26.5,12.53 -57.29,22.91 -92.38,31.14 -35.09,8.23 -75.54,12.36 -121.36,12.36 -22.91,0 -47.8,-0.71 -74.65,-2.14 -26.84,-1.43 -51.73,-2.87 -74.64,-4.3 -23.63,-1.43 -43.68,-2.87 -60.14,-4.3 -16.47,-1.43 -26.13,-2.14 -29,-2.14 -1.43,0 -6.09,0 -13.97,0 -7.88,0 -17.54,0.36 -29,1.08 -10.74,0 -21.84,0.36 -33.3,1.07 -11.46,0.72 -21.12,1.08 -29,1.08 -11.46,0 -17.18,-2.87 -17.18,-8.59 0,-4.3 2.85,-6.44 8.59,-6.44 5.01,0 10.38,-0.37 16.11,-1.08 5.73,-0.71 11.1,-1.79 16.11,-3.22 10.74,-2.14 18.08,-8.59 22.02,-19.33 3.93,-10.74 6.98,-23.99 9.12,-39.74 2.87,-22.91 4.48,-54.6 4.83,-95.05 0.37,-40.45 0.55,-86.45 0.55,-138.01l0 -189.04c0,-41.53 0,-75.54 0,-102.03 0,-26.5 0,-47.8 0,-63.91 0,-16.11 -0.18,-29 -0.55,-38.67 -0.36,-9.67 -0.89,-18.8 -1.61,-27.39 -0.62,-8.19 -2.89,-15.48 -6.29,-21.96zm9309.06 93.92l13.97 514.47c0.71,22.2 1.97,40.64 3.75,55.32 1.79,14.68 4.3,26.84 7.52,36.51 3.22,9.67 7.33,17.01 12.34,22.02 5.02,5.01 11.1,8.59 18.27,10.74 10.02,2.85 20.22,4.66 30.61,5.37 10.38,0.71 18.08,1.08 23.09,1.08 5.73,0 8.59,2.14 8.59,6.44 0,5.72 -6.44,8.59 -19.33,8.59 -30.79,0 -56.2,-0.53 -76.25,-1.61 -20.04,-1.08 -32.58,-1.61 -37.59,-1.61 -5.01,0 -17.37,0.53 -37.05,1.61 -19.7,1.08 -41.71,1.61 -66.05,1.61 -11.46,0 -17.19,-2.87 -17.19,-8.59 0,-4.3 2.87,-6.44 8.59,-6.44 4.3,0 10.74,-0.37 19.33,-1.08 8.6,-0.71 16.83,-2.51 24.71,-5.37 13.6,-3.59 22.38,-15.05 26.31,-34.38 3.93,-19.33 5.91,-53.34 5.91,-102.03l1.07 -615.43c0,-20.77 0.9,-34.91 2.69,-42.43 1.79,-7.51 4.83,-11.28 9.13,-11.28 4.29,0 10.2,4.3 17.72,12.89 7.51,8.6 14.14,15.76 19.87,21.49 4.3,4.29 16.64,17.72 37.05,40.28 20.41,22.56 46.37,50.65 77.86,84.31 31.51,33.65 66.78,71.61 105.8,113.85 39.02,42.24 79.3,85.56 120.83,129.96 26.5,28.63 53.17,57.63 80.02,87 26.86,29.35 52.09,56.92 75.72,82.7 23.63,25.78 44.39,48.51 62.3,68.2 17.9,19.7 31.14,33.83 39.73,42.43l-11.81 -545.62c-0.72,-35.09 -3.75,-59.79 -9.13,-74.11 -5.37,-14.32 -16.29,-23.63 -32.75,-27.93 -10.02,-2.14 -20.23,-3.58 -30.61,-4.29 -10.39,-0.72 -17.72,-1.08 -22.02,-1.08 -5.72,0 -8.59,-2.5 -8.59,-7.52 0,-5.01 7.15,-7.51 21.48,-7.51 12.18,0 24.17,0.18 35.99,0.53 11.81,0.36 22.91,0.72 33.29,1.08 10.39,0.36 19.33,0.71 26.86,1.07 7.52,0.37 12.71,0.55 15.58,0.55 5.72,0 16.82,-0.55 33.29,-1.61 16.47,-1.08 35.8,-1.61 58,-1.61 12.89,0 19.33,2.5 19.33,7.51 0,5.02 -3.93,7.52 -11.81,7.52 -2.87,0 -6.27,0.18 -10.2,0.53 -3.95,0.37 -9.13,1.26 -15.58,2.69 -17.9,3.58 -29,12.36 -33.3,26.31 -4.29,13.97 -6.44,37.05 -6.44,69.28l-2.14 629.4c0,17.9 -0.18,31.87 -0.53,41.89 -0.37,10.03 -0.9,17.54 -1.61,22.56 -0.72,5.01 -1.61,8.23 -2.69,9.67 -1.08,1.43 -2.69,2.16 -4.83,2.16 -2.14,0 -4.83,-0.9 -8.06,-2.69 -3.22,-1.79 -7.7,-5.19 -13.42,-10.2 -5.73,-5.01 -13.08,-12 -22.02,-20.94 -8.96,-8.96 -20.59,-20.59 -34.91,-34.91 -2.87,-2.87 -13.78,-13.79 -32.75,-32.75 -18.98,-18.98 -42.07,-42.61 -69.28,-70.89 -27.21,-28.29 -56.57,-58.9 -88.08,-91.83 -31.5,-32.94 -61.58,-64.81 -90.22,-95.6 -31.5,-33.65 -62.11,-66.76 -91.83,-99.34 -29.71,-32.59 -57.1,-62.83 -82.16,-90.77 -25.05,-27.92 -46.9,-52.09 -65.52,-72.5 -18.61,-20.41 -32.22,-35.62 -40.81,-45.64zm-705.65 305.03l205.14 0c4.3,0 5.73,-2.5 4.3,-7.51l-102.04 -290.01c-5.72,-15.74 -11.09,-15.74 -16.11,0l-94.51 290.01c-2.16,5.01 -1.08,7.51 3.22,7.51zm-150.38 237.37l243.82 -667c6.44,-17.9 11.1,-29.35 13.95,-34.37 2.87,-5.01 6.09,-7.52 9.67,-7.52 3.59,0 6.81,2.33 9.67,6.99 2.87,4.66 7.52,15.21 13.97,31.68 2.87,7.17 9.49,24.17 19.87,51.02 10.39,26.86 22.92,59.79 37.6,98.81 14.68,39.03 30.97,81.81 48.87,128.35 17.9,46.54 35.62,92.55 53.17,138.02 17.54,45.47 34.38,88.61 50.49,129.42 16.11,40.82 29.53,74.83 40.28,102.04 9.3,23.62 18.43,42.95 27.39,58 8.94,15.03 17.18,26.84 24.7,35.44 7.52,8.59 14.68,14.68 21.48,18.25 6.8,3.58 13.07,6.09 18.8,7.52 7.88,2.85 15.58,4.66 23.09,5.37 7.52,0.71 14.14,1.08 19.88,1.08 7.15,0 10.73,2.14 10.73,6.44 0,3.58 -2.14,5.9 -6.44,6.98 -4.29,1.08 -9.31,1.61 -15.03,1.61 -4.3,0 -12,0 -23.09,0 -11.1,0 -24.36,0 -39.74,0 -15.4,0 -32.22,-0.18 -50.48,-0.53 -18.27,-0.37 -36.7,-0.9 -55.32,-1.61 -10.02,-0.72 -17.9,-1.26 -23.62,-1.61 -5.73,-0.37 -8.6,-2.33 -8.6,-5.91 0,-3.58 2.51,-6.09 7.52,-7.52 3.58,-1.43 6.44,-4.47 8.59,-9.12 2.16,-4.66 1.43,-11.28 -2.14,-19.88l-99.89 -264.22c-2.16,-4.29 -5.38,-6.44 -9.67,-6.44l-230.93 0c-5.01,0 -8.59,2.87 -10.73,8.6l-64.44 190.11c-10.03,27.92 -15.05,51.91 -15.05,71.95 0,10.74 4.48,18.62 13.43,23.63 8.94,5.01 18.08,7.52 27.39,7.52l10.73 0c7.17,0 10.74,2.14 10.74,6.44 0,5.72 -5.37,8.59 -16.11,8.59 -6.44,0 -13.97,-0.18 -22.56,-0.53 -8.59,-0.37 -16.82,-0.72 -24.7,-1.08 -7.88,-0.36 -15.22,-0.71 -22.02,-1.08 -6.8,-0.36 -11.63,-0.53 -14.5,-0.53 -2.87,0 -8.41,0.18 -16.64,0.53 -8.23,0.37 -18.09,0.72 -29.54,1.08 -11.46,0.36 -23.62,0.71 -36.51,1.08 -12.89,0.36 -25.78,0.53 -38.67,0.53 -13.61,0 -20.41,-2.87 -20.41,-8.59 0,-4.3 3.22,-6.44 9.67,-6.44 3.58,0 8.59,-0.18 15.03,-0.55 6.44,-0.36 11.82,-0.89 16.11,-1.61 25.07,-3.58 43.87,-14.5 56.39,-32.75 12.53,-18.25 23.81,-40.99 33.83,-68.2zm-912.95 -542.4l13.97 514.47c0.71,22.2 1.97,40.64 3.75,55.32 1.79,14.68 4.3,26.84 7.52,36.51 3.22,9.67 7.33,17.01 12.34,22.02 5.02,5.01 11.1,8.59 18.27,10.74 10.02,2.85 20.22,4.66 30.61,5.37 10.38,0.71 18.08,1.08 23.09,1.08 5.73,0 8.59,2.14 8.59,6.44 0,5.72 -6.44,8.59 -19.33,8.59 -30.79,0 -56.2,-0.53 -76.25,-1.61 -20.04,-1.08 -32.58,-1.61 -37.59,-1.61 -5.01,0 -17.37,0.53 -37.05,1.61 -19.7,1.08 -41.71,1.61 -66.05,1.61 -11.46,0 -17.19,-2.87 -17.19,-8.59 0,-4.3 2.87,-6.44 8.59,-6.44 4.3,0 10.74,-0.37 19.33,-1.08 8.6,-0.71 16.83,-2.51 24.71,-5.37 13.6,-3.59 22.38,-15.05 26.31,-34.38 3.93,-19.33 5.91,-53.34 5.91,-102.03l1.07 -615.43c0,-20.77 0.9,-34.91 2.69,-42.43 1.79,-7.51 4.83,-11.28 9.13,-11.28 4.29,0 10.2,4.3 17.72,12.89 7.51,8.6 14.14,15.76 19.87,21.49 4.3,4.29 16.64,17.72 37.05,40.28 20.41,22.56 46.37,50.65 77.86,84.31 31.51,33.65 66.78,71.61 105.8,113.85 39.02,42.24 79.3,85.56 120.83,129.96 26.5,28.63 53.17,57.63 80.02,87 26.86,29.35 52.09,56.92 75.72,82.7 23.63,25.78 44.39,48.51 62.3,68.2 17.9,19.7 31.14,33.83 39.73,42.43l-11.81 -545.62c-0.72,-35.09 -3.75,-59.79 -9.13,-74.11 -5.37,-14.32 -16.29,-23.63 -32.75,-27.93 -10.02,-2.14 -20.23,-3.58 -30.61,-4.29 -10.39,-0.72 -17.72,-1.08 -22.02,-1.08 -5.72,0 -8.59,-2.5 -8.59,-7.52 0,-5.01 7.15,-7.51 21.48,-7.51 12.18,0 24.17,0.18 35.99,0.53 11.81,0.36 22.91,0.72 33.29,1.08 10.39,0.36 19.33,0.71 26.86,1.07 7.52,0.37 12.71,0.55 15.58,0.55 5.72,0 16.82,-0.55 33.29,-1.61 16.47,-1.08 35.8,-1.61 58,-1.61 12.89,0 19.33,2.5 19.33,7.51 0,5.02 -3.93,7.52 -11.81,7.52 -2.87,0 -6.27,0.18 -10.2,0.53 -3.95,0.37 -9.13,1.26 -15.58,2.69 -17.9,3.58 -29,12.36 -33.3,26.31 -4.29,13.97 -6.44,37.05 -6.44,69.28l-2.14 629.4c0,17.9 -0.18,31.87 -0.53,41.89 -0.37,10.03 -0.9,17.54 -1.61,22.56 -0.72,5.01 -1.61,8.23 -2.69,9.67 -1.08,1.43 -2.69,2.16 -4.83,2.16 -2.14,0 -4.83,-0.9 -8.06,-2.69 -3.22,-1.79 -7.7,-5.19 -13.42,-10.2 -5.73,-5.01 -13.08,-12 -22.02,-20.94 -8.96,-8.96 -20.59,-20.59 -34.91,-34.91 -2.87,-2.87 -13.78,-13.79 -32.75,-32.75 -18.98,-18.98 -42.07,-42.61 -69.28,-70.89 -27.21,-28.29 -56.57,-58.9 -88.08,-91.83 -31.5,-32.94 -61.58,-64.81 -90.22,-95.6 -31.5,-33.65 -62.11,-66.76 -91.83,-99.34 -29.71,-32.59 -57.1,-62.83 -82.16,-90.77 -25.05,-27.92 -46.9,-52.09 -65.52,-72.5 -18.61,-20.41 -32.22,-35.62 -40.81,-45.64zm-738.95 -97.74l0 351.21c0,5.73 2.51,10.02 7.52,12.89 7.88,5.01 22.73,9.13 44.56,12.36 21.84,3.22 44.58,4.83 68.21,4.83 12.89,0 26.49,-1.26 40.81,-3.75 14.32,-2.51 27.57,-8.06 39.74,-16.66 18.61,-12.89 34.19,-33.48 46.72,-61.75 12.53,-28.29 18.8,-62.83 18.8,-103.65 0,-67.3 -16.48,-119.93 -49.41,-157.89 -32.94,-37.94 -78.41,-56.92 -136.41,-56.92 -16.47,0 -31.14,0.72 -44.03,2.14 -12.89,1.43 -22.2,2.87 -27.93,4.3 -5.72,2.14 -8.59,6.44 -8.59,12.89zm-85.92 446.81l0 -189.04c0,-41.53 0,-75.54 0,-102.03 0,-26.5 0,-47.8 0,-63.91 0,-16.11 -0.18,-29 -0.55,-38.67 -0.36,-9.67 -0.89,-18.8 -1.61,-27.39 -1.42,-18.61 -5.01,-32.58 -10.73,-41.89 -5.73,-9.31 -17.54,-15.76 -35.44,-19.33 -4.3,-1.43 -10.21,-2.32 -17.72,-2.69 -7.52,-0.36 -13.79,-0.53 -18.8,-0.53 -5.73,0 -8.59,-2.14 -8.59,-6.44 0,-5.72 5.72,-8.59 17.18,-8.59 12.18,0 25.07,0.18 38.67,0.53 13.61,0.36 26.32,0.72 38.13,1.08 11.81,0.36 21.84,0.71 30.08,1.07 8.23,0.37 13.07,0.55 14.5,0.55 2.87,0 9.49,-0.18 19.87,-0.55 10.39,-0.36 22.2,-0.71 35.44,-1.07 13.24,-0.36 26.31,-0.72 39.2,-1.08 12.89,-0.36 23.63,-0.53 32.22,-0.53 34.38,0 68.57,2.68 102.58,8.06 34.01,5.37 65.34,18.43 93.99,39.2 6.44,5.01 13.95,12 22.56,20.94 8.59,8.96 16.64,19.51 24.17,31.69 7.51,12.17 13.95,26.13 19.33,41.89 5.37,15.76 8.06,32.93 8.06,51.55 0,40.1 -9.67,80.38 -29,120.83 -19.33,40.45 -52.99,82.88 -100.96,127.27 44.39,56.57 84.85,108.12 121.36,154.66 36.52,46.54 70.53,86.64 102.04,120.3 29.35,30.79 55.13,50.83 77.33,60.14 22.19,9.31 40.09,15.03 53.7,17.19 10.02,1.43 18.61,2.32 25.78,2.68 7.15,0.37 12.53,0.55 16.11,0.55 6.44,0 9.67,2.14 9.67,6.44 0,3.58 -1.79,5.9 -5.37,6.98 -3.59,1.08 -10.39,1.61 -20.41,1.61l-76.25 0c-30.08,0 -53.36,-1.43 -69.82,-4.3 -16.47,-2.85 -31.5,-8.23 -45.11,-16.11 -22.91,-12.17 -45.11,-31.32 -66.59,-57.45 -21.48,-26.15 -47.62,-59.61 -78.41,-100.43 -11.46,-15.03 -22.91,-30.43 -34.37,-46.18 -11.46,-15.76 -22.38,-30.8 -32.77,-45.11 -10.38,-14.32 -20.04,-27.39 -29,-39.21 -8.94,-11.81 -15.92,-21.3 -20.94,-28.45 -4.29,-4.3 -8.94,-6.44 -13.95,-6.44l-132.11 -2.16c-5.01,0 -7.52,2.87 -7.52,8.6l0 25.78c0,51.55 0.18,97.55 0.53,138.01 0.37,40.45 1.98,72.14 4.83,95.05 1.43,15.76 4.66,29 9.67,39.74 5.02,10.74 15.76,17.19 32.22,19.33 7.88,1.43 16.66,2.51 26.32,3.22 9.67,0.71 17,1.08 22.01,1.08 5.73,0 8.6,2.14 8.6,6.44 0,5.72 -5.73,8.59 -17.19,8.59 -15.03,0 -30.08,-0.18 -45.11,-0.53 -15.03,-0.37 -28.82,-0.72 -41.36,-1.08 -12.52,-0.36 -22.91,-0.71 -31.14,-1.08 -8.23,-0.36 -13.07,-0.53 -14.5,-0.53 0,0 -3.75,0.18 -11.28,0.53 -7.52,0.37 -16.64,0.72 -27.39,1.08 -10.74,0.36 -21.84,0.71 -33.3,1.08 -11.46,0.36 -21.12,0.53 -29,0.53 -11.46,0 -17.18,-2.87 -17.18,-8.59 0,-4.3 2.85,-6.44 8.59,-6.44 5.01,0 10.38,-0.37 16.11,-1.08 5.73,-0.71 11.1,-1.79 16.11,-3.22 10.74,-2.14 18.08,-8.59 22.02,-19.33 3.93,-10.74 6.98,-23.99 9.12,-39.74 2.87,-22.91 4.48,-54.6 4.83,-95.05 0.37,-40.45 0.55,-86.45 0.55,-138.01zm-655.17 0l0 -189.04c0,-41.53 0,-75.54 0,-102.03 0,-26.5 0,-47.8 0,-63.91 0,-16.11 -0.18,-29 -0.55,-38.67 -0.36,-9.67 -0.89,-18.8 -1.61,-27.39 -1.42,-18.61 -5.01,-32.58 -10.73,-41.89 -5.73,-9.31 -17.54,-15.76 -35.44,-19.33 -4.3,-1.43 -10.21,-2.32 -17.72,-2.69 -7.52,-0.36 -13.79,-0.53 -18.8,-0.53 -5.73,0 -8.59,-2.14 -8.59,-6.44 0,-5.72 5.72,-8.59 17.18,-8.59 12.18,0 25.07,0 38.67,0 13.61,0 26.5,0.36 38.67,1.07l44.04 2.16c2.14,0 14.85,0 38.12,0 23.28,0 49.41,0 78.41,0 29,0 56.21,-0.18 81.63,-0.55 25.42,-0.36 41.34,-0.53 47.79,-0.53 20.77,-1.43 36.17,-3.22 46.19,-5.37 2.87,-0.72 5.37,-1.79 7.52,-3.22 2.14,-1.43 4.66,-2.16 7.52,-2.16 2.85,0 4.29,3.22 4.29,9.67 0,3.59 -1.07,9.13 -3.22,16.66 -2.14,7.51 -3.93,18.79 -5.37,33.83 0,2.87 -0.18,7.51 -0.53,13.95 -0.37,6.44 -0.9,13.43 -1.61,20.94 -0.72,7.52 -1.26,14.69 -1.62,21.49 -0.36,6.8 -0.89,11.63 -1.61,14.5 -0.71,2.87 -1.61,5.54 -2.68,8.06 -1.08,2.5 -2.69,3.75 -4.83,3.75 -5.73,0 -8.6,-4.66 -8.6,-13.97 0,-3.58 -0.36,-9.3 -1.07,-17.18 -0.72,-7.88 -2.51,-15.05 -5.38,-21.49 -3.58,-8.59 -10.02,-15.92 -19.33,-22.01 -9.3,-6.09 -28.28,-10.92 -56.92,-14.5 -4.3,-0.72 -13.97,-1.26 -29,-1.61 -15.03,-0.36 -30.79,-0.72 -47.25,-1.08 -16.47,-0.36 -31.69,-0.53 -45.66,-0.53 -13.95,0 -22.36,0 -25.23,0 -4.3,0 -6.44,3.58 -6.44,10.73l0 296.45c0,7.15 2.14,10.73 6.44,10.73 3.58,0 13.24,0 29,0 15.76,0 33.11,0 52.09,0 18.98,0 37.05,-0.18 54.24,-0.53 17.18,-0.36 29,-0.9 35.44,-1.61 12.89,-1.43 23.27,-2.87 31.14,-4.3 7.88,-1.43 14.32,-5.01 19.33,-10.73 7.88,-9.31 13.24,-13.97 16.11,-13.97 3.58,0 5.37,2.87 5.37,8.59 0,3.58 -1.07,10.02 -3.22,19.33 -2.14,9.31 -3.93,22.91 -5.37,40.82 -0.71,5.72 -1.26,11.99 -1.61,18.79 -0.36,6.8 -0.71,13.61 -1.08,20.41 -0.36,6.8 -0.71,12.89 -1.07,18.25 -0.36,5.38 -0.55,9.13 -0.55,11.28 0,4.3 -0.36,8.78 -1.07,13.43 -0.72,4.64 -2.87,6.98 -6.44,6.98 -5.01,0 -7.52,-3.22 -7.52,-9.67 0,-5.73 -0.18,-11.28 -0.53,-16.64 -0.36,-5.38 -1.61,-11.65 -3.77,-18.8 -2.14,-7.88 -6.8,-15.58 -13.95,-23.09 -7.17,-7.52 -21.12,-12.36 -41.89,-14.5 -7.17,-0.72 -18.44,-1.43 -33.83,-2.16 -15.4,-0.71 -31.16,-1.26 -47.27,-1.61 -16.11,-0.36 -31.14,-0.71 -45.11,-1.07 -13.95,-0.37 -23.09,-0.55 -27.39,-0.55 -5.01,0 -7.51,2.51 -7.51,7.52l0 94.15c0,9.31 0,22.92 0,40.82 0,17.72 0,36.33 0,55.66 0,19.16 0,37.05 0,53.53 0,16.47 0,27.57 0,33.11 0.71,18.62 2.68,33.65 5.9,45.11 3.22,11.28 9.31,20.23 18.27,26.68 8.94,6.44 21.3,10.73 37.05,12.89 15.76,2.14 36.88,3.22 63.36,3.22 14.32,0 31.51,-0.55 51.55,-1.61 20.06,-1.08 37.23,-4.48 51.55,-10.21 14.32,-5.72 25.07,-14.5 32.22,-26.31 7.17,-11.81 12.53,-28.82 16.11,-51.02 2.16,-10.73 5.38,-16.11 9.67,-16.11 3.58,0 5.56,1.79 5.91,5.38 0.36,3.58 0.53,7.15 0.53,10.73 0,2.16 -0.53,7.7 -1.61,16.66 -1.07,8.94 -2.32,18.97 -3.75,30.06 -1.43,11.1 -2.87,22.02 -4.3,32.77 -1.43,10.91 -2.87,19.16 -4.29,25.05 -2.16,7.34 -4.3,12.89 -6.44,16.47 -2.16,3.77 -5.38,6.44 -9.67,8.25 -4.3,1.97 -9.68,3.03 -16.12,3.4 -6.44,0.36 -15.03,0.53 -25.78,0.53 -40.81,0 -76.08,-0.36 -105.79,-1.08 -29.72,-0.71 -54.95,-1.43 -75.72,-2.14 -20.77,-1.43 -37.96,-2.32 -51.55,-2.69 -13.61,-0.36 -24.34,-0.53 -32.22,-0.53 -1.43,0 -6.09,0 -13.97,0 -7.88,0 -17.54,0.36 -29,1.08 -10.74,0 -21.84,0.36 -33.3,1.07 -11.46,0.72 -21.12,1.08 -29,1.08 -11.46,0 -17.18,-2.87 -17.18,-8.59 0,-4.3 2.85,-6.44 8.59,-6.44 5.01,0 10.38,-0.37 16.11,-1.08 5.73,-0.71 11.1,-1.79 16.11,-3.22 10.74,-2.14 18.08,-8.59 22.02,-19.33 3.93,-10.74 6.98,-23.99 9.12,-39.74 2.87,-22.91 4.48,-54.6 4.83,-95.05 0.37,-40.45 0.55,-86.45 0.55,-138.01zm-635.84 0l0 -189.04c0,-41.53 0,-75.54 0,-102.03 0,-26.5 0,-47.8 0,-63.91 0,-16.11 -0.18,-29 -0.55,-38.67 -0.36,-9.67 -0.89,-18.8 -1.61,-27.39 -1.42,-18.61 -5.01,-32.58 -10.73,-41.89 -5.73,-9.31 -17.54,-15.76 -35.44,-19.33 -4.3,-1.43 -10.21,-2.32 -17.72,-2.69 -7.52,-0.36 -13.79,-0.53 -18.8,-0.53 -5.73,0 -8.59,-2.14 -8.59,-6.44 0,-5.72 5.72,-8.59 17.18,-8.59 12.18,0 25.07,0 38.67,0 13.61,0 26.5,0.36 38.67,1.07l44.04 1.08c3.58,0 11.99,0 25.23,0 13.26,0 29,0 47.27,0 18.25,0 37.77,0 58.53,0 20.77,0 27.59,0 45.85,0 18.27,0 34.2,0 47.8,0 13.61,0 22.61,0.19 26.86,0 10.02,-0.46 19.16,-1.26 27.39,-1.61 8.23,-0.36 14.96,-1.08 19.87,-2.69 3.62,-1.18 6.48,-2.88 8.6,-4.29 2.12,-1.4 4.29,-2.16 6.44,-2.16 4.29,0 6.44,3.22 6.44,9.67 0,3.59 -1.08,9.15 -3.22,16.66 -2.14,7.51 -4.21,18.79 -5.38,33.83 -0.22,2.82 -0.18,7.51 -0.53,13.95 -0.36,6.44 -0.93,13.47 -1.61,20.94 -0.69,7.5 -1.26,14.69 -1.61,21.49 -0.36,6.8 -0.93,11.67 -1.61,14.5 -0.69,2.84 -1.65,5.57 -2.69,8.06 -1.04,2.46 -3.04,3.75 -5.9,3.75 -5.02,0 -7.52,-4.3 -7.52,-12.89 0,-4.3 -0.75,-10.41 -2.14,-18.25 -1.4,-7.85 -3.98,-15.43 -7.52,-22.56 -3.55,-7.13 -11.49,-14.53 -23.63,-22.02 -12.14,-7.48 -28.69,-11.92 -49.41,-12.36l-152.71 -3.22c-6.38,-0.14 -9.67,4.01 -9.67,11.82l0 297.52c0,6.3 2.5,9.69 7.51,9.67l277.03 -1.08c9.31,-0.04 17.72,0 25.23,0 7.52,0 15.31,-0.32 23.1,-1.08 12.84,-1.26 23.16,-3.29 30.61,-5.37 7.45,-2.07 13.78,-6.93 18.79,-13.97 2.02,-2.85 4.2,-5.43 5.91,-7.51 1.73,-2.08 3.75,-3.22 5.91,-3.22 3.58,0 5.37,2.85 5.37,8.59 0,3.58 -1.17,10.09 -3.22,19.16 -2.11,9.24 -3.84,22.62 -5.37,39.92 -0.49,5.65 -1.32,12.24 -1.61,19.33 -0.28,7.09 -0.79,14.39 -1.08,21.48 -0.28,7.09 -0.79,13.66 -1.08,19.33 -0.29,5.65 -0.53,9.67 -0.53,11.81 0,5.01 -0.43,9.73 -1.08,13.97 -0.65,4.22 -2.85,6.44 -6.44,6.44 -5.01,0 -7.19,-3.3 -7.51,-9.67 -0.28,-5.7 -1.51,-12.06 -2.16,-18.8 -0.65,-6.72 -2.11,-13.54 -4.29,-19.87 -2.69,-7.85 -8.84,-15.83 -17.72,-23.63 -8.88,-7.81 -21.71,-13.07 -38.13,-15.03 -6.34,-0.76 -17.72,-1.27 -33.83,-1.61 -16.11,-0.34 -172.47,-0.72 -190.02,-1.08 -17.54,-0.36 -33.83,-0.53 -48.88,-0.53 -15.03,0 -24.7,0 -29,0 -5.01,0 -7.51,3.22 -7.51,9.67l0 91.3c0,51.55 0.18,97.55 0.53,138.01 0.36,40.45 1.97,72.14 4.83,95.05 1.43,15.76 4.66,29 9.67,39.74 5.01,10.74 15.76,17.19 32.22,19.33 7.88,1.43 16.64,2.51 26.31,3.22 9.67,0.71 17.01,1.08 22.02,1.08 5.73,0 8.59,2.14 8.59,6.44 0,5.72 -5.72,8.59 -17.18,8.59 -15.05,0 -30.08,-0.18 -45.11,-0.53 -15.05,-0.37 -28.82,-0.72 -41.36,-1.08 -12.53,-0.36 -22.91,-0.71 -31.14,-1.08 -8.23,-0.36 -13.07,-0.53 -14.5,-0.53 -1.43,0 -6.27,0.18 -14.5,0.53 -8.23,0.37 -17.72,0.72 -28.47,1.08 -10.74,0.36 -21.84,0.71 -33.3,1.08 -11.46,0.36 -21.12,0.53 -29,0.53 -11.46,0 -17.18,-2.87 -17.18,-8.59 0,-4.3 2.85,-6.44 8.59,-6.44 5.01,0 10.38,-0.37 16.11,-1.08 5.73,-0.71 11.1,-1.79 16.11,-3.22 10.74,-2.14 18.08,-8.59 22.02,-19.33 3.93,-10.74 6.98,-23.99 9.12,-39.74 2.87,-22.91 4.48,-54.6 4.83,-95.05 0.37,-40.45 0.55,-86.45 0.55,-138.01zm11093.93 -349.07l13.97 514.47c0.71,22.2 1.97,40.64 3.75,55.32 1.79,14.68 4.3,26.84 7.52,36.51 3.22,9.67 7.33,17.01 12.34,22.02 5.02,5.01 11.1,8.59 18.27,10.74 10.02,2.85 20.22,4.66 30.61,5.37 10.38,0.71 18.08,1.08 23.09,1.08 5.73,0 8.59,2.14 8.59,6.44 0,5.72 -6.44,8.59 -19.33,8.59 -30.79,0 -56.2,-0.53 -76.25,-1.61 -20.04,-1.08 -32.58,-1.61 -37.59,-1.61 -5.01,0 -17.37,0.53 -37.05,1.61 -19.7,1.08 -41.71,1.61 -66.05,1.61 -11.46,0 -17.19,-2.87 -17.19,-8.59 0,-4.3 2.87,-6.44 8.59,-6.44 4.3,0 10.74,-0.37 19.33,-1.08 8.6,-0.71 16.83,-2.51 24.71,-5.37 13.6,-3.59 22.38,-15.05 26.31,-34.38 3.93,-19.33 5.91,-53.34 5.91,-102.03l1.07 -615.43c0,-20.77 0.9,-34.91 2.69,-42.43 1.79,-7.51 4.83,-11.28 9.13,-11.28 4.29,0 10.2,4.3 17.72,12.89 7.51,8.6 14.14,15.76 19.87,21.49 4.3,4.29 16.64,17.72 37.05,40.28 20.41,22.56 46.37,50.65 77.86,84.31 31.51,33.65 66.78,71.61 105.8,113.85 39.02,42.24 79.3,85.56 120.83,129.96 26.5,28.63 53.17,57.63 80.02,87 26.86,29.35 52.09,56.92 75.72,82.7 23.63,25.78 44.39,48.51 62.3,68.2 17.9,19.7 31.14,33.83 39.73,42.43l-11.81 -545.62c-0.72,-35.09 -3.75,-59.79 -9.13,-74.11 -5.37,-14.32 -16.29,-23.63 -32.75,-27.93 -10.02,-2.14 -20.23,-3.58 -30.61,-4.29 -10.39,-0.72 -17.72,-1.08 -22.02,-1.08 -5.72,0 -8.59,-2.5 -8.59,-7.52 0,-5.01 7.15,-7.51 21.48,-7.51 12.18,0 24.17,0.18 35.99,0.53 11.81,0.36 22.91,0.72 33.29,1.08 10.39,0.36 19.33,0.71 26.86,1.07 7.52,0.37 12.71,0.55 15.58,0.55 5.72,0 16.82,-0.55 33.29,-1.61 16.47,-1.08 35.8,-1.61 58,-1.61 12.89,0 19.33,2.5 19.33,7.51 0,5.02 -3.93,7.52 -11.81,7.52 -2.87,0 -6.27,0.18 -10.2,0.53 -3.95,0.37 -9.13,1.26 -15.58,2.69 -17.9,3.58 -29,12.36 -33.3,26.31 -4.29,13.97 -6.44,37.05 -6.44,69.28l-2.14 629.4c0,17.9 -0.18,31.87 -0.53,41.89 -0.37,10.03 -0.9,17.54 -1.61,22.56 -0.72,5.01 -1.61,8.23 -2.69,9.67 -1.08,1.43 -2.69,2.16 -4.83,2.16 -2.14,0 -4.83,-0.9 -8.06,-2.69 -3.22,-1.79 -7.7,-5.19 -13.42,-10.2 -5.73,-5.01 -13.08,-12 -22.02,-20.94 -8.96,-8.96 -20.59,-20.59 -34.91,-34.91 -2.87,-2.87 -13.78,-13.79 -32.75,-32.75 -18.98,-18.98 -42.07,-42.61 -69.28,-70.89 -27.21,-28.29 -56.57,-58.9 -88.08,-91.83 -31.5,-32.94 -61.58,-64.81 -90.22,-95.6 -31.5,-33.65 -62.11,-66.76 -91.83,-99.34 -29.71,-32.59 -57.1,-62.83 -82.16,-90.77 -25.05,-27.92 -46.9,-52.09 -65.52,-72.5 -18.61,-20.41 -32.22,-35.62 -40.81,-45.64zm-705.65 305.03l205.14 0c4.3,0 5.73,-2.5 4.3,-7.51l-102.04 -290.01c-5.72,-15.74 -11.09,-15.74 -16.11,0l-94.51 290.01c-2.16,5.01 -1.08,7.51 3.22,7.51zm-150.38 237.37l243.82 -667c6.44,-17.9 11.1,-29.35 13.95,-34.37 2.87,-5.01 6.09,-7.52 9.67,-7.52 3.59,0 6.81,2.33 9.67,6.99 2.87,4.66 7.52,15.21 13.97,31.68 2.87,7.17 9.49,24.17 19.87,51.02 10.39,26.86 22.92,59.79 37.6,98.81 14.68,39.03 30.97,81.81 48.87,128.35 17.9,46.54 35.62,92.55 53.17,138.02 17.54,45.47 34.38,88.61 50.49,129.42 16.11,40.82 29.53,74.83 40.28,102.04 9.3,23.62 18.43,42.95 27.39,58 8.94,15.03 17.18,26.84 24.7,35.44 7.52,8.59 14.68,14.68 21.48,18.25 6.8,3.58 13.07,6.09 18.8,7.52 7.88,2.85 15.58,4.66 23.09,5.37 7.52,0.71 14.14,1.08 19.88,1.08 7.15,0 10.73,2.14 10.73,6.44 0,3.58 -2.14,5.9 -6.44,6.98 -4.29,1.08 -9.31,1.61 -15.03,1.61 -4.3,0 -12,0 -23.09,0 -11.1,0 -24.36,0 -39.74,0 -15.4,0 -32.22,-0.18 -50.48,-0.53 -18.27,-0.37 -36.7,-0.9 -55.32,-1.61 -10.02,-0.72 -17.9,-1.26 -23.62,-1.61 -5.73,-0.37 -8.6,-2.33 -8.6,-5.91 0,-3.58 2.51,-6.09 7.52,-7.52 3.58,-1.43 6.44,-4.47 8.59,-9.12 2.16,-4.66 1.43,-11.28 -2.14,-19.88l-99.89 -264.22c-2.16,-4.29 -5.38,-6.44 -9.67,-6.44l-230.93 0c-5.01,0 -8.59,2.87 -10.73,8.6l-64.44 190.11c-10.03,27.92 -15.05,51.91 -15.05,71.95 0,10.74 4.48,18.62 13.43,23.63 8.94,5.01 18.08,7.52 27.39,7.52l10.73 0c7.17,0 10.74,2.14 10.74,6.44 0,5.72 -5.37,8.59 -16.11,8.59 -6.44,0 -13.97,-0.18 -22.56,-0.53 -8.59,-0.37 -16.82,-0.72 -24.7,-1.08 -7.88,-0.36 -15.22,-0.71 -22.02,-1.08 -6.8,-0.36 -11.63,-0.53 -14.5,-0.53 -2.87,0 -8.41,0.18 -16.64,0.53 -8.23,0.37 -18.09,0.72 -29.54,1.08 -11.46,0.36 -23.62,0.71 -36.51,1.08 -12.89,0.36 -25.78,0.53 -38.67,0.53 -13.61,0 -20.41,-2.87 -20.41,-8.59 0,-4.3 3.22,-6.44 9.67,-6.44 3.58,0 8.59,-0.18 15.03,-0.55 6.44,-0.36 11.82,-0.89 16.11,-1.61 25.07,-3.58 43.87,-14.5 56.39,-32.75 12.53,-18.25 23.81,-40.99 33.83,-68.2zm-424.25 -647.66l0 454.34c0,51.55 0.18,97.55 0.53,138.01 0.36,40.45 1.97,72.14 4.83,95.05 1.43,15.76 4.66,29 9.67,39.74 5.01,10.74 15.76,17.19 32.22,19.33 7.88,1.43 16.64,2.51 26.31,3.22 9.67,0.71 17.01,1.08 22.02,1.08 5.73,0 8.59,2.14 8.59,6.44 0,5.72 -5.72,8.59 -17.18,8.59 -15.05,0 -30.08,-0.18 -45.11,-0.53 -15.05,-0.37 -28.82,-0.72 -41.36,-1.08 -12.53,-0.36 -22.91,-0.71 -31.14,-1.08 -8.23,-0.36 -13.07,-0.53 -14.5,-0.53 -1.43,0 -6.27,0.18 -14.5,0.53 -8.23,0.37 -17.72,0.72 -28.47,1.08 -10.74,0.36 -21.83,0.71 -33.3,1.08 -11.46,0.36 -21.12,0.53 -29,0.53 -11.46,0 -17.18,-2.87 -17.18,-8.59 0,-4.3 2.87,-6.44 8.59,-6.44 5.01,0 10.39,-0.37 16.11,-1.08 5.73,-0.71 11.1,-1.79 16.11,-3.22 10.74,-2.14 18.08,-8.59 22.02,-19.33 3.93,-10.74 6.98,-23.99 9.12,-39.74 2.87,-22.91 4.48,-54.6 4.83,-95.05 0.37,-40.45 0.55,-86.45 0.55,-138.01l0 -454.34 -158.96 2.16c-16.47,0 -30.61,0.71 -42.42,2.14 -11.82,1.43 -22.02,3.4 -30.61,5.91 -8.6,2.5 -15.76,5.9 -21.49,10.2 -5.72,4.3 -10.73,9.67 -15.03,16.11 -5.73,9.31 -9.84,16.29 -12.36,20.94 -2.5,4.66 -4.47,8.78 -5.9,12.36 -2.87,7.15 -6.44,10.73 -10.74,10.73 -3.58,0 -5.37,-3.22 -5.37,-9.67 0,-2.85 1.07,-9.84 3.22,-20.94 2.14,-11.09 4.66,-23.09 7.51,-35.98 2.87,-12.89 5.56,-24.7 8.06,-35.44 2.51,-10.74 4.12,-17.19 4.83,-19.33 1.43,-3.58 3.04,-7.88 4.83,-12.89 1.79,-5.01 3.77,-7.52 5.91,-7.52 3.58,0 8.77,1.8 15.58,5.38 6.8,3.58 17.35,6.09 31.68,7.51 15.76,1.43 32.22,2.69 49.41,3.77 17.19,1.07 29,1.61 35.44,1.61l402.77 0c17.19,0 32.04,-0.55 44.58,-1.61 12.53,-1.08 23.09,-2.33 31.69,-3.77 7.87,-1.42 14.31,-2.68 19.33,-3.75 5.01,-1.08 8.59,-1.61 10.73,-1.61 2.87,0 4.48,1.26 4.83,3.75 0.36,2.51 0.55,5.56 0.55,9.13 0,7.88 -0.19,17.9 -0.55,30.08 -0.36,12.17 -0.71,24.34 -1.07,36.51 -0.37,12.18 -0.72,23.1 -1.08,32.77 -0.36,9.67 -0.53,15.93 -0.53,18.79 0,9.31 -2.51,13.97 -7.52,13.97 -2.87,0 -4.83,-1.08 -5.91,-3.22 -1.07,-2.14 -1.97,-7.15 -2.68,-15.03l-1.08 -11.82c-0.72,-7.87 -3.22,-15.39 -7.52,-22.56 -4.29,-7.15 -11.28,-13.24 -20.94,-18.25 -9.67,-5.01 -22.91,-9.13 -39.73,-12.36 -16.83,-3.22 -38.13,-5.19 -63.91,-5.9l-135.33 -2.16zm-1230.87 105.27l13.97 514.47c0.71,22.2 1.97,40.64 3.75,55.32 1.79,14.68 4.3,26.84 7.52,36.51 3.22,9.67 7.33,17.01 12.34,22.02 5.02,5.01 11.1,8.59 18.27,10.74 10.02,2.85 20.22,4.66 30.61,5.37 10.38,0.71 18.08,1.08 23.09,1.08 5.73,0 8.59,2.14 8.59,6.44 0,5.72 -6.44,8.59 -19.33,8.59 -30.79,0 -56.2,-0.53 -76.25,-1.61 -20.04,-1.08 -32.58,-1.61 -37.59,-1.61 -5.01,0 -17.37,0.53 -37.05,1.61 -19.7,1.08 -41.71,1.61 -66.05,1.61 -11.46,0 -17.19,-2.87 -17.19,-8.59 0,-4.3 2.87,-6.44 8.59,-6.44 4.3,0 10.74,-0.37 19.33,-1.08 8.6,-0.71 16.83,-2.51 24.71,-5.37 13.6,-3.59 22.38,-15.05 26.31,-34.38 3.93,-19.33 5.91,-53.34 5.91,-102.03l1.07 -615.43c0,-20.77 0.9,-34.91 2.69,-42.43 1.79,-7.51 4.83,-11.28 9.13,-11.28 4.29,0 10.2,4.3 17.72,12.89 7.51,8.6 14.14,15.76 19.87,21.49 4.3,4.29 16.64,17.72 37.05,40.28 20.41,22.56 46.37,50.65 77.86,84.31 31.51,33.65 66.78,71.61 105.8,113.85 39.02,42.24 79.3,85.56 120.83,129.96 26.5,28.63 53.17,57.63 80.02,87 26.86,29.35 52.09,56.92 75.72,82.7 23.63,25.78 44.39,48.51 62.3,68.2 17.9,19.7 31.14,33.83 39.73,42.43l-11.81 -545.62c-0.72,-35.09 -3.75,-59.79 -9.13,-74.11 -5.37,-14.32 -16.29,-23.63 -32.75,-27.93 -10.02,-2.14 -20.23,-3.58 -30.61,-4.29 -10.39,-0.72 -17.72,-1.08 -22.02,-1.08 -5.72,0 -8.59,-2.5 -8.59,-7.52 0,-5.01 7.15,-7.51 21.48,-7.51 12.18,0 24.17,0.18 35.99,0.53 11.81,0.36 22.91,0.72 33.29,1.08 10.39,0.36 19.33,0.71 26.86,1.07 7.52,0.37 12.71,0.55 15.58,0.55 5.72,0 16.82,-0.55 33.29,-1.61 16.47,-1.08 35.8,-1.61 58,-1.61 12.89,0 19.33,2.5 19.33,7.51 0,5.02 -3.93,7.52 -11.81,7.52 -2.87,0 -6.27,0.18 -10.2,0.53 -3.95,0.37 -9.13,1.26 -15.58,2.69 -17.9,3.58 -29,12.36 -33.3,26.31 -4.29,13.97 -6.44,37.05 -6.44,69.28l-2.14 629.4c0,17.9 -0.18,31.87 -0.53,41.89 -0.37,10.03 -0.9,17.54 -1.61,22.56 -0.72,5.01 -1.61,8.23 -2.69,9.67 -1.08,1.43 -2.69,2.16 -4.83,2.16 -2.14,0 -4.83,-0.9 -8.06,-2.69 -3.22,-1.79 -7.7,-5.19 -13.42,-10.2 -5.73,-5.01 -13.08,-12 -22.02,-20.94 -8.96,-8.96 -20.59,-20.59 -34.91,-34.91 -2.87,-2.87 -13.78,-13.79 -32.75,-32.75 -18.98,-18.98 -42.07,-42.61 -69.28,-70.89 -27.21,-28.29 -56.57,-58.9 -88.08,-91.83 -31.5,-32.94 -61.58,-64.81 -90.22,-95.6 -31.5,-33.65 -62.11,-66.76 -91.83,-99.34 -29.71,-32.59 -57.1,-62.83 -82.16,-90.77 -25.05,-27.92 -46.9,-52.09 -65.52,-72.5 -18.61,-20.41 -32.22,-35.62 -40.81,-45.64zm-705.65 305.03l205.14 0c4.3,0 5.73,-2.5 4.3,-7.51l-102.04 -290.01c-5.72,-15.74 -11.09,-15.74 -16.11,0l-94.51 290.01c-2.16,5.01 -1.08,7.51 3.22,7.51zm-150.38 237.37l243.82 -667c6.44,-17.9 11.1,-29.35 13.95,-34.37 2.87,-5.01 6.09,-7.52 9.67,-7.52 3.59,0 6.81,2.33 9.67,6.99 2.87,4.66 7.52,15.21 13.97,31.68 2.87,7.17 9.49,24.17 19.87,51.02 10.39,26.86 22.92,59.79 37.6,98.81 14.68,39.03 30.97,81.81 48.87,128.35 17.9,46.54 35.62,92.55 53.17,138.02 17.54,45.47 34.38,88.61 50.49,129.42 16.11,40.82 29.53,74.83 40.28,102.04 9.3,23.62 18.43,42.95 27.39,58 8.94,15.03 17.18,26.84 24.7,35.44 7.52,8.59 14.68,14.68 21.48,18.25 6.8,3.58 13.07,6.09 18.8,7.52 7.88,2.85 15.58,4.66 23.09,5.37 7.52,0.71 14.14,1.08 19.88,1.08 7.15,0 10.73,2.14 10.73,6.44 0,3.58 -2.14,5.9 -6.44,6.98 -4.29,1.08 -9.31,1.61 -15.03,1.61 -4.3,0 -12,0 -23.09,0 -11.1,0 -24.36,0 -39.74,0 -15.4,0 -32.22,-0.18 -50.48,-0.53 -18.27,-0.37 -36.7,-0.9 -55.32,-1.61 -10.02,-0.72 -17.9,-1.26 -23.62,-1.61 -5.73,-0.37 -8.6,-2.33 -8.6,-5.91 0,-3.58 2.51,-6.09 7.52,-7.52 3.58,-1.43 6.44,-4.47 8.59,-9.12 2.16,-4.66 1.43,-11.28 -2.14,-19.88l-99.89 -264.22c-2.16,-4.29 -5.38,-6.44 -9.67,-6.44l-230.93 0c-5.01,0 -8.59,2.87 -10.73,8.6l-64.44 190.11c-10.03,27.92 -15.05,51.91 -15.05,71.95 0,10.74 4.48,18.62 13.43,23.63 8.94,5.01 18.08,7.52 27.39,7.52l10.73 0c7.17,0 10.74,2.14 10.74,6.44 0,5.72 -5.37,8.59 -16.11,8.59 -6.44,0 -13.97,-0.18 -22.56,-0.53 -8.59,-0.37 -16.82,-0.72 -24.7,-1.08 -7.88,-0.36 -15.22,-0.71 -22.02,-1.08 -6.8,-0.36 -11.63,-0.53 -14.5,-0.53 -2.87,0 -8.41,0.18 -16.64,0.53 -8.23,0.37 -18.09,0.72 -29.54,1.08 -11.46,0.36 -23.62,0.71 -36.51,1.08 -12.89,0.36 -25.78,0.53 -38.67,0.53 -13.61,0 -20.41,-2.87 -20.41,-8.59 0,-4.3 3.22,-6.44 9.67,-6.44 3.58,0 8.59,-0.18 15.03,-0.55 6.44,-0.36 11.82,-0.89 16.11,-1.61 25.07,-3.58 43.87,-14.5 56.39,-32.75 12.53,-18.25 23.81,-40.99 33.83,-68.2zm-1875.29 -318.99c0,62.29 8.78,118.85 26.31,169.7 17.54,50.83 41.89,94.15 73.04,129.96 31.14,35.8 67.49,63.36 109.01,82.7 41.53,19.33 86.64,29 135.33,29 24.36,0 53.36,-4.48 87.01,-13.42 33.64,-8.96 66.05,-26.68 97.2,-53.17 31.14,-26.5 57.64,-63.91 79.48,-112.24 21.84,-48.33 32.77,-111.52 32.77,-189.57 0,-64.44 -9.13,-121.36 -27.39,-170.77 -18.27,-49.41 -42.43,-90.75 -72.5,-124.05 -30.08,-33.3 -64.81,-58.53 -104.19,-75.72 -39.39,-17.19 -80.2,-25.78 -122.44,-25.78 -45.11,0 -86.82,7.34 -125.13,22.02 -38.31,14.68 -71.42,36.88 -99.35,66.59 -27.92,29.72 -49.75,66.59 -65.51,110.63 -15.76,44.03 -23.63,95.41 -23.63,154.13zm-102.03 30.06c0,-28.64 3.58,-59.06 10.73,-91.29 7.17,-32.22 18.27,-63.91 33.3,-95.07 15.03,-31.14 33.83,-60.85 56.39,-89.14 22.56,-28.28 49.59,-53.17 81.09,-74.64 31.51,-21.49 67.31,-38.49 107.41,-51.02 40.1,-12.53 84.85,-18.8 134.25,-18.8 60.16,0 116.01,9.31 167.56,27.93 51.55,18.61 96.12,45.29 133.72,80.01 37.59,34.73 67.12,76.98 88.61,126.74 21.48,49.77 32.22,105.8 32.22,168.1 0,60.14 -10.21,116.89 -30.61,170.23 -20.41,53.34 -49.23,99.89 -86.47,139.63 -37.23,39.74 -82.34,71.24 -135.33,94.52 -52.99,23.27 -111.7,34.9 -176.15,34.9 -73.74,0 -136.94,-12.89 -189.56,-38.67 -52.63,-25.78 -95.78,-59.06 -129.43,-99.89 -33.65,-40.81 -58.35,-86.1 -74.11,-135.86 -15.74,-49.77 -23.62,-99 -23.62,-147.69zm-772.25 -110.62l0 133.17c0,28.64 0,55.85 0,81.63 0,25.78 0.18,49.04 0.53,69.81 0.36,20.77 0.72,38.31 1.08,52.63 0.36,14.32 0.53,23.99 0.53,29 0,6.44 0.36,13.79 1.08,22.02 0.71,8.23 1.43,16.29 2.14,24.17 0.72,7.88 1.79,15.03 3.22,21.48 1.43,6.44 3.22,11.1 5.37,13.97 3.59,5.01 9.13,10.02 16.66,15.03 7.51,5.01 18.25,9.67 32.22,13.97 13.95,4.29 31.87,7.69 53.7,10.2 21.84,2.51 48.51,3.75 80.02,3.75 50.12,0 97.2,-8.59 141.24,-25.78 44.03,-17.18 82.16,-41.89 114.39,-74.11 13.6,-13.6 25.78,-30.06 36.51,-49.4 10.74,-19.33 19.88,-40.28 27.39,-62.83 7.52,-22.56 13.07,-46.01 16.66,-70.35 3.58,-24.34 5.37,-49.06 5.37,-74.11 0,-34.37 -3.22,-65.52 -9.67,-93.44 -6.44,-27.92 -14.85,-53.17 -25.24,-75.72 -10.38,-22.56 -21.65,-42.24 -33.83,-59.08 -12.17,-16.82 -23.62,-30.97 -34.37,-42.42 -25.07,-26.5 -51.55,-47.8 -79.48,-63.91 -27.93,-16.11 -56.58,-28.47 -85.93,-37.05 -29.35,-8.59 -59.61,-14.14 -90.75,-16.64 -31.16,-2.51 -62.83,-3.77 -95.05,-3.77 -5.73,0 -12,0.19 -18.8,0.55 -6.8,0.36 -13.78,0.89 -20.94,1.61 -7.15,0.71 -13.42,1.61 -18.8,2.68 -5.37,1.08 -9.12,1.98 -11.28,2.69 -8.59,3.58 -12.89,10.74 -12.89,21.48 0,9.31 -0.18,22.56 -0.53,39.74 -0.36,17.19 -0.53,36.34 -0.53,57.47 0,21.12 0,43.14 0,66.05 0,22.91 0,44.75 0,65.52zm-90.22 206.22l0 -189.04c0,-41.53 0,-75.54 0,-102.03 0,-26.5 0,-47.8 0,-63.91 0,-16.11 -0.18,-29 -0.55,-38.67 -0.36,-9.67 -0.89,-18.8 -1.61,-27.39 -1.42,-18.61 -5.01,-32.58 -10.73,-41.89 -5.73,-9.31 -17.54,-15.76 -35.44,-19.33 -4.3,-1.43 -10.21,-2.32 -17.72,-2.69 -7.52,-0.36 -13.79,-0.53 -18.8,-0.53 -5.73,0 -8.59,-2.14 -8.59,-6.44 0,-5.72 5.72,-8.59 17.18,-8.59 12.18,0 25.07,0.18 38.67,0.53 13.61,0.36 26.32,0.72 38.13,1.08 11.81,0.36 21.84,0.71 30.08,1.07 8.23,0.37 13.07,0.55 14.5,0.55 2.87,0 9.12,-0.18 18.79,-0.55 9.67,-0.36 21.13,-0.71 34.38,-1.07 13.24,-0.36 27.74,-0.72 43.5,-1.08 15.76,-0.36 31.87,-0.53 48.33,-0.53 26.49,0 57.82,0.18 93.98,0.53 36.17,0.36 73.93,4.12 113.32,11.28 39.38,7.17 78.4,19.16 117.06,35.98 38.67,16.83 74.11,41.71 106.33,74.65 13.61,14.32 26.68,30.43 39.21,48.33 12.52,17.9 23.62,38.12 33.29,60.68 9.67,22.56 17.37,47.44 23.1,74.65 5.72,27.21 8.59,56.92 8.59,89.14 0,33.65 -3.22,65.52 -9.67,95.6 -6.44,30.06 -15.03,57.81 -25.78,83.23 -10.74,25.42 -23.09,48.51 -37.05,69.28 -13.97,20.77 -28.47,39.03 -43.5,54.78 -11.46,12.18 -26.31,25.42 -44.58,39.74 -18.25,14.32 -40.63,27.74 -67.12,40.28 -26.5,12.53 -57.29,22.91 -92.38,31.14 -35.09,8.23 -75.54,12.36 -121.36,12.36 -22.91,0 -47.8,-0.71 -74.65,-2.14 -26.84,-1.43 -51.73,-2.87 -74.64,-4.3 -23.63,-1.43 -43.68,-2.87 -60.14,-4.3 -16.47,-1.43 -26.13,-2.14 -29,-2.14 -1.43,0 -6.09,0 -13.97,0 -7.88,0 -17.54,0.36 -29,1.08 -10.74,0 -21.84,0.36 -33.3,1.07 -11.46,0.72 -21.12,1.08 -29,1.08 -11.46,0 -17.18,-2.87 -17.18,-8.59 0,-4.3 2.85,-6.44 8.59,-6.44 5.01,0 10.38,-0.37 16.11,-1.08 5.73,-0.71 11.1,-1.79 16.11,-3.22 10.74,-2.14 18.08,-8.59 22.02,-19.33 3.93,-10.74 6.98,-23.99 9.12,-39.74 2.87,-22.91 4.48,-54.6 4.83,-95.05 0.37,-40.45 0.55,-86.45 0.55,-138.01zm7119.91 193.33l243.82 -667c6.44,-17.9 11.1,-29.35 13.95,-34.37 2.87,-5.01 6.09,-7.52 9.67,-7.52 3.59,0 6.81,2.33 9.67,6.99 2.87,4.66 7.52,15.21 13.97,31.68 2.87,7.17 9.49,24.17 19.87,51.02 10.39,26.86 22.92,59.79 37.6,98.81 14.68,39.03 30.97,81.81 48.87,128.35 17.9,46.54 35.62,92.55 53.17,138.02 17.54,45.47 34.38,88.61 50.49,129.42 16.11,40.82 29.53,74.83 40.28,102.04 9.3,23.62 18.43,42.95 27.39,58 8.94,15.03 17.18,26.84 24.7,35.44 7.52,8.59 14.68,14.68 21.48,18.25 6.8,3.58 13.07,6.09 18.8,7.52 7.88,2.85 15.58,4.66 23.09,5.37 7.52,0.71 14.14,1.08 19.88,1.08 7.15,0 10.73,2.14 10.73,6.44 0,3.58 -2.14,5.9 -6.44,6.98 -4.29,1.08 -9.31,1.61 -15.03,1.61 -4.3,0 -12,0 -23.09,0 -11.1,0 -24.36,0 -39.74,0 -15.4,0 -32.22,-0.18 -50.48,-0.53 -18.27,-0.37 -36.7,-0.9 -55.32,-1.61 -10.02,-0.72 -17.9,-1.26 -23.62,-1.61 -5.73,-0.37 -8.6,-2.33 -8.6,-5.91 0,-3.58 2.51,-6.09 7.52,-7.52 3.58,-1.43 6.44,-4.47 8.59,-9.12 2.16,-4.66 1.43,-11.28 -2.14,-19.88l-99.89 -264.22c-2.16,-4.29 -5.38,-6.44 -9.67,-6.44l-230.93 0c-5.01,0 -8.59,2.87 -10.73,8.6l-64.44 190.11c-10.03,27.92 -15.05,51.91 -15.05,71.95 0,10.74 4.48,18.62 13.43,23.63 8.94,5.01 18.08,7.52 27.39,7.52l10.73 0c7.17,0 10.74,2.14 10.74,6.44 0,5.72 -5.37,8.59 -16.11,8.59 -6.44,0 -13.97,-0.18 -22.56,-0.53 -8.59,-0.37 -16.82,-0.72 -24.7,-1.08 -7.88,-0.36 -15.22,-0.71 -22.02,-1.08 -6.8,-0.36 -11.63,-0.53 -14.5,-0.53 -2.87,0 -8.41,0.18 -16.64,0.53 -8.23,0.37 -18.09,0.72 -29.54,1.08 -11.46,0.36 -23.62,0.71 -36.51,1.08 -12.89,0.36 -25.78,0.53 -38.67,0.53 -13.61,0 -20.41,-2.87 -20.41,-8.59 0,-4.3 3.22,-6.44 9.67,-6.44 3.58,0 8.59,-0.18 15.03,-0.55 6.44,-0.36 11.82,-0.89 16.11,-1.61 25.07,-3.58 43.87,-14.5 56.39,-32.75 12.53,-18.25 23.81,-40.99 33.83,-68.2zm150.38 -237.37l205.14 0c4.3,0 5.73,-2.5 4.3,-7.51l-102.04 -290.01c-5.72,-15.74 -11.09,-15.74 -16.11,0l-94.51 290.01c-2.16,5.01 -1.08,7.51 3.22,7.51zm-15083.75 353.89l-16.14 -0.6c-8.23,-0.37 -13.07,-0.55 -14.5,-0.55 -1.45,0 -6.28,0.18 -14.5,0.55 -8.25,0.37 -17.71,0.71 -28.47,1.07 -10.74,0.36 -21.86,0.72 -33.31,1.08 -11.44,0.36 -21.1,0.52 -28.99,0.52 -11.46,0 -17.18,-2.84 -17.18,-8.58 0,-4.3 2.85,-6.44 8.58,-6.44 5.02,0 10.39,-0.37 16.12,-1.07 5.73,-0.72 11.09,-1.79 16.1,-3.22 10.76,-2.14 18.09,-8.6 22.03,-19.35 3.93,-10.74 6.98,-23.99 9.12,-39.73 2.87,-22.91 4.48,-54.6 4.85,-95.07 0.36,-40.44 0.52,-86.45 0.52,-137.99l0 -189.04c0,-41.53 0,-75.53 0,-102.03 0,-26.5 0,-47.8 0,-63.91 0,-16.11 -0.16,-28.99 -0.52,-38.65 -0.37,-9.67 -0.9,-18.8 -1.62,-27.4 -2.16,-35.09 -14.33,-55.12 -36.51,-60.13 -5.72,-1.45 -11.81,-2.51 -18.27,-3.23 -6.46,-0.72 -11.46,-1.07 -15.03,-1.07 -5.72,0 -8.59,-2.14 -8.59,-6.46 0,-5.71 5.72,-8.59 17.16,-8.59 8.6,0 19,0.18 31.17,0.53 12.17,0.37 23.62,0.74 34.37,1.09 10.76,0.34 20.22,0.7 28.47,1.07 8.22,0.37 13.05,0.53 14.5,0.53 1.43,0 6.27,-0.16 14.5,-0.53 8.25,-0.37 17.71,-0.72 28.45,-1.07 10.74,-0.36 21.84,-0.72 33.29,-1.09 11.47,-0.36 21.13,-0.53 29.02,-0.53 11.44,0 17.18,2.88 17.18,8.59 0,4.31 -2.88,6.46 -8.6,6.46 -3.58,0 -7.33,0.16 -11.29,0.52 -3.92,0.38 -9.11,1.27 -15.57,2.69 -14.32,2.88 -24.17,9.13 -29.54,18.8 -5.35,9.68 -8.75,23.81 -10.2,42.42 -0.7,8.6 -1.26,17.73 -1.6,27.4 -0.36,9.67 -0.53,22.54 -0.53,38.65 0,16.11 0,37.41 0,63.91 0,26.5 0,60.5 0,102.03l0 189.04c0,51.54 0.19,97.55 0.53,137.99 0.29,34.18 0.98,93.06 5.58,127.19 109.43,38.07 225.22,91.82 328.71,126.02 47.28,15.63 89.27,27.13 126.01,34.56 36.71,7.43 67.75,12.11 93.15,14.07 25.4,1.94 44.72,2.93 58.01,2.93 25.76,0 56.83,-3.13 93.18,-9.36 36.31,-6.27 72.46,-16.02 108.37,-29.32 7.05,-2.33 12.11,-3.51 15.25,-3.51 1.56,0 2.93,0.77 4.1,2.35 1.18,1.56 1.76,3.13 1.76,4.68 0,4.69 -3.13,7.43 -8.19,10.55 -106.08,65.5 -215.21,100.47 -340.71,90.89 -174.25,-13.29 -284.72,-116.04 -500.22,-199.66zm10029.56 -334.55c-0.27,-12.61 28.89,-5.07 73.11,-6.43 17.59,-0.55 20.5,7.75 6.74,10.25 -18.08,3.25 -45.05,17.09 -54.15,35.13 -1.85,7.17 -3.12,16.52 -3.46,28.78 -0.74,26.49 -0.65,40.06 3.39,77.78 4.73,44.34 10.47,85.21 41.24,116.1 33.2,33.34 93.06,55.11 138.72,57.14 82.88,3.7 157.25,-38.97 182.34,-110.61 17.68,-50.49 10.06,-138.21 -38.6,-188.8 -75.44,-78.45 -226.68,-153.51 -281.16,-241.55 -70.39,-113.74 -5.89,-242.21 115.38,-264.27 77.64,-14.13 154.09,10.64 173.44,10.64 17.82,0 5.86,46.94 5.86,118.5 0,28.49 -11.78,32.77 -14.65,10.48 -10.09,-78.17 -42.64,-106.5 -129.18,-106.5 -135.91,0 -151.77,125.07 -61.87,215.4 72.22,72.55 228.42,162.15 289.31,245.01 40.71,55.36 50.92,155.26 28.76,222 -45.58,137.22 -174.58,158.79 -274.1,151.59 -62.1,-4.48 -187.67,-43.74 -206.53,-117.75 -13.87,-54.4 -3.41,-136.02 -0.34,-200.24 0.63,-13.33 6.05,-49.77 5.78,-62.65z"/>
 </g>
</svg>
