<?xml version="1.0" encoding="UTF-8"?>
<!DOCTYPE svg PUBLIC "-//W3C//DTD SVG 1.1//EN" "http://www.w3.org/Graphics/SVG/1.1/DTD/svg11.dtd">
<!-- Creator: CorelDRAW 2019 (64 Bit) -->
<svg xmlns="http://www.w3.org/2000/svg" xml:space="preserve" width="5.596mm" height="5.596mm" version="1.1" style="shape-rendering:geometricPrecision; text-rendering:geometricPrecision; image-rendering:optimizeQuality; fill-rule:evenodd; clip-rule:evenodd"
viewBox="0 0 24.17 24.17"
 xmlns:xlink="http://www.w3.org/1999/xlink"
 xmlns:xodm="http://www.corel.com/coreldraw/odm/2003">
 <defs>
  <style type="text/css">
   <![CDATA[
    .fil0 {fill:#D7D7D7}
    .fil1 {fill:white}
   ]]>
  </style>
 </defs>
 <g id="Camada_x0020_1">
  <metadata id="CorelCorpID_0Corel-Layer"/>
  <g id="_2125610496000">
   <path class="fil0" d="M12.09 0c6.67,0 12.09,5.41 12.09,12.09 0,6.67 -5.41,12.09 -12.09,12.09 -6.67,0 -12.09,-5.41 -12.09,-12.09 0,-6.67 5.41,-12.09 12.09,-12.09z"/>
   <path class="fil1" d="M2.83 15.65l9.14 -7.79c0.06,-0.05 0.17,-0.05 0.23,0l9.14 7.79c0.14,0.12 0.26,0.24 0.22,0.41 -0.04,0.17 -0.24,0.35 -0.39,0.25l-9.03 -6.01c-0.03,-0.02 -0.08,-0.02 -0.11,0l-9.03 6.01c-0.15,0.1 -0.35,-0.08 -0.39,-0.25 -0.04,-0.17 0.08,-0.3 0.22,-0.41z"/>
  </g>
 </g>
</svg>
