<?xml version="1.0" encoding="UTF-8"?>
<!DOCTYPE svg PUBLIC "-//W3C//DTD SVG 1.1//EN" "http://www.w3.org/Graphics/SVG/1.1/DTD/svg11.dtd">
<!-- Creator: CorelDRAW 2019 (64 Bit) -->
<svg xmlns="http://www.w3.org/2000/svg" xml:space="preserve" width="16.3313mm" height="16.3377mm" version="1.1" style="shape-rendering:geometricPrecision; text-rendering:geometricPrecision; image-rendering:optimizeQuality; fill-rule:evenodd; clip-rule:evenodd"
viewBox="0 0 228.74 228.83"
 xmlns:xlink="http://www.w3.org/1999/xlink"
 xmlns:xodm="http://www.corel.com/coreldraw/odm/2003">
 <defs>
  <style type="text/css">
   <![CDATA[
    .fil0 {fill:#034D66}
   ]]>
  </style>
 </defs>
 <g id="Camada_x0020_1">
  <metadata id="CorelCorpID_0Corel-Layer"/>
  <g id="_1967888345552">
   <path class="fil0" d="M114.41 0l-0.09 0c-63.05,0 -114.32,51.27 -114.32,114.41 0,25 8.06,48.19 21.74,67.04l-14.22 42.49 43.94 -14.04c18.12,11.96 39.68,18.93 62.96,18.93 63.05,0 114.32,-51.27 114.32,-114.41 0,-63.05 -51.27,-114.41 -114.32,-114.41l0 -0zm66.58 161.52c-2.72,7.79 -13.68,14.22 -22.47,16.13 -5.98,1.27 -13.77,2.26 -40.04,-8.61 -33.61,-13.95 -55.26,-48.1 -56.98,-50.28 -1.63,-2.17 -13.59,-18.12 -13.59,-34.51 0,-16.4 8.33,-24.37 11.69,-27.81 2.72,-2.81 7.34,-4.08 11.69,-4.08 1.45,0 2.72,0.09 3.8,0.09 3.35,0.18 5.07,0.36 7.25,5.62 2.72,6.61 9.51,23.1 10.24,24.73 0.82,1.72 1.63,3.99 0.45,6.16 -1.09,2.26 -1.99,3.26 -3.71,5.26 -1.72,1.9 -3.26,3.44 -4.98,5.53 -1.54,1.81 -3.26,3.81 -1.36,7.16 1.9,3.26 8.7,14.22 18.57,23.1 12.77,11.32 23.1,15.04 26.81,16.58 2.72,1.18 6.07,0.91 8.06,-1.27 2.54,-2.72 5.71,-7.34 8.97,-11.87 2.26,-3.26 5.16,-3.62 8.24,-2.45 3.08,1.09 19.39,9.15 22.83,10.78 3.35,1.72 5.62,2.45 6.43,3.9 0.82,1.45 0.82,8.06 -1.99,15.85l0.09 -0z"/>
  </g>
 </g>
</svg>
